<svg width="240" height="122" viewBox="0 0 240 122" fill="none" xmlns="http://www.w3.org/2000/svg">
<path d="M239.735 99.527L230.02 0L95.4584 13.1342L4.03157 63.7554L9.71459 121.979L239.735 99.527Z" fill="#C72342"/>
<path d="M42.4099 55.0545C42.6969 55.0126 42.927 55.1843 42.9688 55.4712L43.3702 58.2261C43.4121 58.5131 43.2446 58.7719 42.9577 58.8138L40.4897 59.1734C40.3462 59.1943 40.2482 59.3258 40.2649 59.4406L42.5354 75.023C42.5773 75.31 42.3811 75.573 42.0942 75.6148L39.3393 76.0163C39.081 76.0539 38.818 75.8578 38.7761 75.5708L36.5056 59.9884C36.4889 59.8736 36.3574 59.7755 36.2139 59.7964L33.7459 60.156C33.459 60.1978 33.2246 59.9975 33.1828 59.7106L32.7814 56.9556C32.7396 56.6687 32.9112 56.4385 33.1982 56.3967L42.4099 55.0545ZM54.8505 53.2417C55.1087 53.2041 55.3676 53.3715 55.4094 53.6585L58.1901 72.742C58.2319 73.0289 58.0358 73.292 57.7775 73.3296L54.9939 73.7352C54.7356 73.7728 54.4726 73.5767 54.4308 73.2897L53.352 65.8859C53.3311 65.7424 53.1995 65.6444 53.0561 65.6653L50.3298 66.0625C50.2151 66.0793 50.117 66.2108 50.1379 66.3543L51.2167 73.7581C51.2585 74.045 51.0624 74.3081 50.7754 74.3499L48.0205 74.7513C47.7336 74.7931 47.4992 74.5928 47.4574 74.3058L44.6767 55.2224C44.6349 54.9354 44.8065 54.7052 45.0935 54.6634L47.8484 54.262C48.1354 54.2202 48.3942 54.3876 48.436 54.6746L49.5149 62.0784C49.5358 62.2219 49.6673 62.32 49.7821 62.3032L52.5083 61.906C52.6518 61.8851 52.7498 61.7536 52.7289 61.6101L51.6501 54.2063C51.6083 53.9193 51.8086 53.685 52.0669 53.6473L54.8505 53.2417ZM62.7756 55.9261C62.6608 55.9428 62.5628 56.0743 62.5795 56.1891L63.1482 60.0919C63.1691 60.2354 63.3006 60.3334 63.4154 60.3167L66.7155 59.8358C66.9738 59.7982 67.2326 59.9656 67.2745 60.2526L67.6759 63.0075C67.7177 63.2945 67.5216 63.5575 67.2633 63.5951L63.9631 64.076C63.8484 64.0927 63.7503 64.2242 63.767 64.339L64.3399 68.2705C64.3566 68.3853 64.4881 68.4834 64.6029 68.4666L69.5101 67.7516C69.7971 67.7098 70.0314 67.9101 70.0732 68.1971L70.4746 70.952C70.5164 71.2389 70.349 71.4978 70.062 71.5396L61.6538 72.7648C61.3669 72.8066 61.1325 72.6063 61.0907 72.3193L58.31 53.2358C58.2682 52.9489 58.4398 52.7187 58.7268 52.6769L67.135 51.4517C67.422 51.4099 67.6521 51.5815 67.6939 51.8685L68.0954 54.6234C68.1372 54.9104 67.9698 55.1692 67.6828 55.211L62.7756 55.9261ZM89.0913 60.6783C89.2073 61.0717 89.3029 61.5267 89.374 62.0145L89.5454 63.1911C89.6165 63.6789 89.6547 64.1423 89.6516 64.5237C89.6528 64.9338 89.5924 65.3236 89.5236 65.656C89.3489 66.2676 89.0798 66.8343 88.6876 67.3603C88.3199 67.8535 87.8577 68.3018 87.2885 68.6192C86.6703 69.0024 85.7974 69.2468 85.2234 69.3304L80.345 70.0413C80.058 70.0831 79.8237 69.8828 79.7819 69.5958L77.0012 50.5123C76.9594 50.2254 77.131 49.9952 77.4179 49.9534L82.0381 49.2802C82.5834 49.2007 83.4855 49.1572 84.2161 49.3438C84.8235 49.4898 85.3944 49.7876 85.9163 50.1511C86.4423 50.5434 86.8619 51.0097 87.1751 51.5502C87.3646 51.845 87.5051 52.2055 87.6497 52.5947C87.7615 52.9594 87.8571 53.4144 87.9281 53.9022L88.0954 55.0501C88.1665 55.5379 88.2047 56.0013 88.2017 56.3827C88.1741 56.797 88.1424 57.1826 88.0407 57.4905C87.9922 57.7613 87.8619 58.0734 87.6945 58.3322C87.6699 58.3651 87.6699 58.3651 87.6454 58.398C87.6006 58.4924 87.6173 58.6072 87.7118 58.652C87.7775 58.7011 87.8146 58.7543 87.8803 58.8033C88.1846 59.0814 88.4643 59.3923 88.6496 59.6583C88.8104 59.9573 88.9754 60.2849 89.0913 60.6783ZM81.2748 53.4943L81.8351 57.3397C81.856 57.4832 81.9875 57.5812 82.131 57.5603L83.078 57.4223C83.8815 57.3052 84.098 56.9806 84.2122 56.7589C84.3671 56.4139 84.3905 55.9709 84.2985 55.3396L84.2065 54.7083C84.1145 54.0769 83.9615 53.6303 83.7188 53.3726C83.546 53.1926 83.246 52.9433 82.4424 53.0604L81.4954 53.1984C81.352 53.2193 81.2539 53.3508 81.2748 53.4943ZM85.7485 63.4806L85.6523 62.8206C85.5519 62.1318 85.3948 61.6565 85.1521 61.3988C84.9835 61.2476 84.7163 61.0227 84.0275 61.1231L82.6788 61.3196C82.5353 61.3405 82.4372 61.472 82.4582 61.6155L83.0268 65.5183C83.0477 65.6618 83.1793 65.7599 83.3227 65.7389L84.528 65.5633C85.2741 65.4546 85.499 65.1874 85.6215 65.023C85.8093 64.7026 85.853 64.198 85.7485 63.4806ZM94.4275 51.314C94.3127 51.3308 94.2146 51.4623 94.2313 51.5771L94.8 55.4799C94.8209 55.6233 94.9524 55.7214 95.0672 55.7047L98.3674 55.2238C98.6256 55.1862 98.8845 55.3536 98.9263 55.6406L99.3277 58.3955C99.3695 58.6824 99.1734 58.9455 98.9151 58.9831L95.615 59.464C95.5002 59.4807 95.4021 59.6122 95.4189 59.727L95.9917 63.6585C96.0085 63.7733 96.14 63.8713 96.2548 63.8546L101.162 63.1396C101.449 63.0978 101.683 63.2981 101.725 63.585L102.126 66.3399C102.168 66.6269 102.001 66.8858 101.714 66.9276L93.3057 68.1527C93.0187 68.1946 92.7844 67.9943 92.7426 67.7073L89.9619 48.6238C89.9201 48.3368 90.0917 48.1067 90.3787 48.0649L98.7869 46.8397C99.0738 46.7979 99.304 46.9695 99.3458 47.2565L99.7472 50.0114C99.789 50.2983 99.6216 50.5572 99.3346 50.599L94.4275 51.314ZM109.29 52.4014C109.032 52.439 108.769 52.2429 108.731 51.9846L108.53 50.6072C108.38 49.5741 107.751 49.0796 106.833 49.2134C105.886 49.3514 105.424 50.0048 105.575 51.0379L105.633 51.4396C105.725 52.0709 106.092 52.5744 106.367 52.8566C106.885 53.3965 108.015 53.906 109.115 54.4197C110.183 54.9088 111.189 55.3777 111.732 55.8847C112.205 56.314 112.596 56.7846 112.896 57.239C113.057 57.5379 113.23 57.9229 113.379 58.3408C113.491 58.7055 113.607 59.0989 113.653 59.4146L113.753 60.1033C113.849 60.7634 113.848 61.76 113.678 62.4002C113.532 63.0076 113.263 63.5743 112.87 64.1004C112.474 64.5978 112.012 65.0461 111.471 65.3593C110.906 65.7054 110.296 65.9408 109.636 66.037L108.918 66.1416C108.258 66.2377 107.606 66.1862 106.966 66.0158C106.358 65.8698 105.788 65.572 105.266 65.2085C104.768 64.8121 104.32 64.3499 104.007 63.8094C103.661 63.2444 103.404 62.2854 103.308 61.6254L103.086 60.1044C103.044 59.8175 103.216 59.5873 103.503 59.5455L106.258 59.1441C106.516 59.1065 106.775 59.2739 106.817 59.5608L107.017 60.9383C107.164 61.9427 107.797 62.4659 108.744 62.3279C109.662 62.1941 110.119 61.512 109.973 60.5076L109.914 60.1059C109.835 59.5606 109.583 59.0405 109.181 58.6889C108.605 58.1573 107.73 57.7866 106.79 57.3668C105.698 56.9105 104.601 56.4255 103.787 55.6649C103.475 55.3295 102.993 54.8428 102.647 54.2778C102.227 53.6064 102.007 52.7006 101.923 52.1267L101.823 51.438C101.727 50.7779 101.695 49.7568 101.87 49.1452C102.012 48.5091 102.31 47.9382 102.677 47.4451C103.07 46.919 103.536 46.4994 104.072 46.1575C104.641 45.8401 105.252 45.6046 105.912 45.5084L106.629 45.4039C107.289 45.3077 107.942 45.3592 108.578 45.501C109.189 45.6756 109.756 45.9447 110.282 46.337C110.804 46.7005 111.224 47.1669 111.541 47.7361C111.883 48.2724 112.173 49.2559 112.269 49.9159L112.49 51.4368C112.528 51.6951 112.332 51.9581 112.045 52L109.29 52.4014ZM122.542 43.3784C122.829 43.3365 123.059 43.5082 123.101 43.7951L123.502 46.55C123.544 46.837 123.376 47.0959 123.089 47.1377L120.621 47.4973C120.478 47.5182 120.38 47.6497 120.397 47.7645L122.667 63.3469C122.709 63.6339 122.513 63.8969 122.226 63.9387L119.471 64.3402C119.213 64.3778 118.95 64.1817 118.908 63.8947L116.637 48.3123C116.621 48.1975 116.489 48.0994 116.346 48.1203L113.878 48.4799C113.591 48.5217 113.356 48.3214 113.315 48.0345L112.913 45.2795C112.871 44.9926 113.043 44.7624 113.33 44.7206L122.542 43.3784ZM142.251 43.4664C142.63 44.0559 142.933 45.1255 143.037 45.8429L144.404 55.2268C144.509 55.9442 144.52 57.0269 144.325 57.7001C144.159 58.369 143.865 58.9686 143.449 59.5276C143.061 60.0823 142.541 60.539 141.976 60.8851C141.358 61.2682 140.686 61.4834 139.997 61.5837L139.71 61.6256C139.021 61.7259 138.316 61.7115 137.643 61.5165C136.974 61.3502 136.345 61.0608 135.815 60.6398C135.256 60.2231 134.804 59.7322 134.454 59.1385C134.075 58.549 133.805 57.5039 133.701 56.7865L132.333 47.4026C132.229 46.6852 132.185 45.578 132.38 44.9048C132.55 44.2645 132.839 43.6362 133.256 43.0773C133.648 42.5513 134.168 42.0946 134.758 41.7156C135.351 41.3653 136.019 41.1215 136.708 41.0211L136.995 40.9793C137.683 40.879 138.393 40.9221 139.091 41.0842C139.735 41.2834 140.363 41.5728 140.89 41.965C141.448 42.3818 141.905 42.9014 142.251 43.4664ZM140.624 55.6311L139.299 46.5342C139.198 45.8454 138.98 45.3498 138.614 45.0514C138.31 44.7734 137.887 44.6885 137.399 44.7595C136.911 44.8306 136.53 45.0326 136.318 45.3859C136.081 45.7721 135.984 46.3138 136.085 47.0025L137.41 56.0994C137.506 56.7594 137.758 57.2796 138.095 57.5822C138.395 57.8315 138.822 57.9451 139.31 57.874C139.798 57.803 140.174 57.5722 140.391 57.2476C140.656 56.8573 140.72 56.2911 140.624 55.6311ZM156.134 38.4836C156.421 38.4418 156.68 38.6092 156.721 38.8962L159.502 57.9797C159.544 58.2667 159.348 58.5297 159.061 58.5715L156.248 58.9813C156.048 59.0106 155.854 58.8922 155.743 58.7325L150.687 50.1792C150.572 49.9908 150.264 50.0942 150.298 50.3238L151.582 59.1338C151.623 59.4207 151.456 59.6796 151.169 59.7214L148.357 60.1312C148.07 60.173 147.835 59.9727 147.794 59.6857L145.013 40.6022C144.971 40.3153 145.143 40.0851 145.43 40.0433L148.242 39.6335C148.443 39.6043 148.632 39.694 148.743 39.8536L153.837 48.6652C153.952 48.8535 154.259 48.7502 154.23 48.5493L152.905 39.4523C152.863 39.1654 153.063 38.931 153.321 38.8934L156.134 38.4836ZM175.099 35.7202C175.386 35.6784 175.616 35.85 175.658 36.137L176.059 38.8919C176.101 39.1789 175.933 39.4377 175.646 39.4795L173.178 39.8391C173.035 39.86 172.937 39.9916 172.954 40.1063L175.224 55.6888C175.266 55.9758 175.07 56.2388 174.783 56.2806L172.028 56.682C171.77 56.7197 171.507 56.5235 171.465 56.2366L169.194 40.6541C169.178 40.5393 169.046 40.4413 168.903 40.4622L166.435 40.8218C166.148 40.8636 165.913 40.6633 165.872 40.3763L165.47 37.6214C165.428 37.3344 165.6 37.1043 165.887 37.0625L175.099 35.7202ZM187.539 33.9075C187.797 33.8699 188.056 34.0373 188.098 34.3243L190.879 53.4077C190.921 53.6947 190.724 53.9577 190.466 53.9954L187.683 54.401C187.424 54.4386 187.161 54.2425 187.119 53.9555L186.041 46.5517C186.02 46.4082 185.888 46.3102 185.745 46.3311L183.019 46.7283C182.904 46.745 182.806 46.8765 182.827 47.02L183.905 54.4238C183.947 54.7108 183.751 54.9738 183.464 55.0156L180.709 55.4171C180.422 55.4589 180.188 55.2586 180.146 54.9716L177.365 35.8881C177.324 35.6012 177.495 35.371 177.782 35.3292L180.537 34.9278C180.824 34.886 181.083 35.0534 181.125 35.3404L182.204 42.7442C182.224 42.8877 182.356 42.9857 182.471 42.969L185.197 42.5718C185.34 42.5508 185.438 42.4193 185.418 42.2759L184.339 34.872C184.297 34.5851 184.497 34.3507 184.756 34.3131L187.539 33.9075ZM195.464 36.5918C195.349 36.6086 195.251 36.7401 195.268 36.8549L195.837 40.7577C195.858 40.9011 195.989 40.9992 196.104 40.9825L199.404 40.5016C199.662 40.464 199.921 40.6314 199.963 40.9184L200.365 43.6733C200.406 43.9602 200.21 44.2233 199.952 44.2609L196.652 44.7418C196.537 44.7585 196.439 44.89 196.456 45.0048L197.029 48.9363C197.045 49.0511 197.177 49.1491 197.292 49.1324L202.199 48.4174C202.486 48.3756 202.72 48.5759 202.762 48.8628L203.163 51.6177C203.205 51.9047 203.038 52.1636 202.751 52.2054L194.342 53.4305C194.056 53.4724 193.821 53.2721 193.779 52.9851L190.999 33.9016C190.957 33.6146 191.128 33.3845 191.415 33.3427L199.824 32.1175C200.111 32.0757 200.341 32.2473 200.383 32.5343L200.784 35.2892C200.826 35.5761 200.658 35.835 200.371 35.8768L195.464 36.5918ZM52.1537 81.9011C52.412 81.8634 52.675 82.0595 52.7168 82.3465L55.4975 101.43C55.5393 101.717 55.3432 101.98 55.0849 102.018L52.33 102.419C52.043 102.461 51.78 102.265 51.7382 101.978L50.6803 94.7174C50.6468 94.4879 50.3228 94.4765 50.2988 94.7144L49.5623 99.7159C49.5055 99.9293 49.3255 100.102 49.1246 100.131L46.5132 100.512C46.2836 100.545 46.0618 100.431 45.9752 100.239L43.842 95.6552C43.7512 95.434 43.4152 95.5416 43.4486 95.7712L44.5065 103.031C44.5484 103.318 44.3522 103.581 44.094 103.619L41.3391 104.021C41.0521 104.062 40.8178 103.862 40.7759 103.575L37.9953 84.4916C37.9535 84.2046 38.1209 83.9458 38.4078 83.904L41.3636 83.4733C41.5645 83.444 41.7863 83.5582 41.8771 83.7794L46.725 94.1215C46.8117 94.314 47.0699 94.2764 47.0981 94.0672L48.7644 82.7759C48.7884 82.538 48.9683 82.3652 49.1979 82.3317L52.1537 81.9011ZM68.9325 99.3551C69.0358 99.6624 68.8481 99.9829 68.5324 100.029L65.7201 100.439C65.4905 100.472 65.2646 100.329 65.1737 100.108L64.5868 98.4937C64.5414 98.3831 64.4428 98.3096 64.328 98.3263L61.4583 98.7444C61.3435 98.7612 61.2413 98.864 61.258 98.9788L61.1562 100.693C61.1322 100.931 60.9564 101.133 60.7268 101.166L57.9145 101.576C57.5989 101.622 57.3275 101.368 57.3389 101.044L58.4323 81.3965C58.4275 81.1627 58.632 80.9571 58.8616 80.9236L61.76 80.5013C61.9896 80.4679 62.2155 80.6108 62.3064 80.832L68.9325 99.3551ZM63.2319 95.0279C63.3754 95.007 63.4693 94.8468 63.4155 94.6788L61.9274 90.4997C61.8694 90.303 61.5538 90.349 61.5256 90.5582L61.2919 94.9882C61.2883 95.1645 61.424 95.2913 61.5675 95.2704L63.2319 95.0279ZM81.5238 97.4618C81.6888 97.7895 81.5094 98.1673 81.165 98.2175L78.2667 98.6398C78.0658 98.6691 77.844 98.5548 77.7573 98.3623L74.4544 91.9859C74.4132 91.904 74.3187 91.8592 74.2326 91.8717L73.8309 91.9303C73.7161 91.947 73.6425 92.0456 73.6593 92.1604L74.6043 98.6459C74.6461 98.9329 74.45 99.1959 74.163 99.2377L71.4081 99.6392C71.1211 99.681 70.8868 99.4807 70.845 99.1937L68.0643 80.1102C68.0225 79.8232 68.1941 79.5931 68.4811 79.5513L72.9578 78.899C73.6178 78.8028 74.6389 78.7712 75.2792 78.9417C75.8866 79.0876 76.4575 79.3854 76.9794 79.749C77.4767 80.1454 77.8964 80.6118 78.2383 81.1481C78.6256 81.795 78.8413 82.6721 78.9207 83.2173L79.3138 85.9148C79.3974 86.4888 79.441 87.3909 79.2502 88.0928C79.0755 88.7043 78.8106 89.2997 78.4429 89.7929C78.3203 89.9573 78.169 90.1259 78.0423 90.2616C77.9645 90.3315 77.9526 90.4505 77.998 90.5611L81.5238 97.4618ZM75.496 86.0608L75.22 84.1668C74.9984 82.6459 74.1943 82.5579 73.5056 82.6583L72.5012 82.8046C72.3864 82.8214 72.3128 82.92 72.3296 83.0348L73.0488 87.9707C73.0697 88.1141 73.1683 88.1877 73.2831 88.171L74.2875 88.0246C74.9762 87.9243 75.7218 87.6105 75.496 86.0608ZM89.0931 87.1274L94.8499 95.4614C95.0436 95.7849 94.8684 96.1914 94.4953 96.2458L91.4247 96.6932C91.2526 96.7183 91.0637 96.6286 90.9525 96.4689L87.0486 90.7955C86.9088 90.6401 86.6302 90.7393 86.6636 90.9689L87.5083 96.7657C87.5459 97.0239 87.3498 97.287 87.0915 97.3246L84.3366 97.726C84.0496 97.7678 83.8153 97.5675 83.7777 97.3093L80.9928 78.1971C80.9552 77.9388 81.1226 77.68 81.4096 77.6381L84.1645 77.2367C84.4227 77.1991 84.6858 77.3952 84.7234 77.6535L85.5722 83.479C85.6015 83.6799 85.8968 83.6954 85.9865 83.5065L88.1091 76.955C88.1701 76.7703 88.3255 76.6304 88.4977 76.6053L91.5683 76.1579C91.9413 76.1035 92.2295 76.4719 92.132 76.8084L88.9927 86.4387C88.9401 86.6808 88.9736 86.9104 89.0931 87.1274ZM98.4793 79.0193C98.3645 79.036 98.2665 79.1676 98.2832 79.2823L98.8519 83.1851C98.8728 83.3286 99.0043 83.4267 99.1191 83.41L102.419 82.9291C102.677 82.8915 102.936 83.0589 102.978 83.3458L103.38 86.1008C103.421 86.3877 103.225 86.6508 102.967 86.6884L99.6668 87.1693C99.5521 87.186 99.454 87.3175 99.4707 87.4323L100.044 91.3638C100.06 91.4786 100.192 91.5766 100.307 91.5599L105.214 90.8449C105.501 90.803 105.735 91.0033 105.777 91.2903L106.178 94.0452C106.22 94.3322 106.053 94.591 105.766 94.6329L97.3575 95.858C97.0706 95.8998 96.8362 95.6995 96.7944 95.4126L94.0137 76.3291C93.9719 76.0421 94.1435 75.812 94.4305 75.7702L102.839 74.545C103.126 74.5032 103.356 74.6748 103.398 74.9617L103.799 77.7167C103.841 78.0036 103.673 78.2625 103.386 78.3043L98.4793 79.0193ZM114.109 72.9027C114.396 72.8609 114.626 73.0325 114.668 73.3195L115.07 76.0744C115.111 76.3614 114.944 76.6202 114.657 76.662L112.189 77.0217C112.046 77.0426 111.948 77.1741 111.964 77.2889L114.235 92.8713C114.277 93.1583 114.08 93.4213 113.793 93.4631L111.039 93.8645C110.78 93.9022 110.517 93.7061 110.475 93.4191L108.205 77.8366C108.188 77.7218 108.057 77.6238 107.913 77.6447L105.445 78.0043C105.158 78.0461 104.924 77.8458 104.882 77.5588L104.481 74.8039C104.439 74.517 104.611 74.2868 104.897 74.245L114.109 72.9027ZM120.199 71.9567C120.486 71.9149 120.754 72.1397 120.763 72.4022L122.397 86.2311C122.41 86.5222 122.238 86.7524 121.951 86.7942L119.196 87.1956C118.909 87.2374 118.679 87.0658 118.609 86.783L116.228 73.0629C116.162 72.8088 116.354 72.517 116.641 72.4752L120.199 71.9567ZM122.185 88.4012C122.472 88.3594 122.707 88.5597 122.748 88.8467L123.15 91.6016C123.187 91.8599 123.02 92.1187 122.733 92.1605L119.978 92.562C119.691 92.6038 119.428 92.4076 119.391 92.1494L118.989 89.3945C118.947 89.1075 119.143 88.8445 119.43 88.8026L122.185 88.4012Z" fill="#F7F2F0"/>
<g filter="url(#filter0_d_1_779)">
<path d="M65.7858 57.2253L92.7494 15.0157L4.03159 63.7554L65.7858 57.2253Z" fill="#B90F2E"/>
</g>
<defs>
<filter id="filter0_d_1_779" x="0.0315898" y="15.0156" width="96.7178" height="56.7397" filterUnits="userSpaceOnUse" color-interpolation-filters="sRGB">
<feFlood flood-opacity="0" result="BackgroundImageFix"/>
<feColorMatrix in="SourceAlpha" type="matrix" values="0 0 0 0 0 0 0 0 0 0 0 0 0 0 0 0 0 0 127 0" result="hardAlpha"/>
<feOffset dy="4"/>
<feGaussianBlur stdDeviation="2"/>
<feColorMatrix type="matrix" values="0 0 0 0 0 0 0 0 0 0 0 0 0 0 0 0 0 0 0.25 0"/>
<feBlend mode="normal" in2="BackgroundImageFix" result="effect1_dropShadow_1_779"/>
<feBlend mode="normal" in="SourceGraphic" in2="effect1_dropShadow_1_779" result="shape"/>
</filter>
</defs>
</svg>
