<svg width="160" height="159" viewBox="0 0 160 159" fill="none" xmlns="http://www.w3.org/2000/svg">
<g filter="url(#filter0_d_1_762)">
<path d="M73.5822 132.919C103.482 136.251 130.457 115.018 133.831 85.4951L85.8011 26.006C55.901 22.6743 28.9268 43.9069 25.5526 73.4302C22.1785 102.953 43.6821 129.588 73.5822 132.919Z" fill="#FEB100"/>
</g>
<circle cx="73.4605" cy="79.2143" r="30.0642" transform="rotate(17.4369 73.4605 79.2143)" stroke="white" stroke-opacity="0.3" stroke-width="0.5"/>
<path d="M50.5242 56.2354C49.0729 57.7352 47.0286 57.7553 45.5976 56.3705L45.5838 56.3572C44.2147 55.0324 44.1252 52.8809 45.5366 51.4224C46.3687 50.5624 47.1219 50.2521 48.0278 50.1695L48.187 51.6158C47.5246 51.6808 47.0128 51.8517 46.4802 52.4021C45.7346 53.1726 45.8232 54.444 46.6419 55.2362L46.6557 55.2496C47.5363 56.1017 48.7688 56.1221 49.5943 55.269C49.9738 54.8768 50.2037 54.4465 50.2707 53.9918L49.5827 53.326L48.5508 54.3924L47.6358 53.507L49.6597 51.4155L51.7511 53.4394C51.6915 54.3408 51.3764 55.3548 50.5242 56.2354Z" fill="white"/>
<path d="M56.4104 51.3573C54.8887 52.3184 53.4262 52.0645 52.3679 50.3891L50.323 47.1514L51.5695 46.3641L53.594 49.5694C54.1819 50.5002 54.9317 50.6834 55.7007 50.1977C56.4696 49.712 56.6366 48.9724 56.064 48.0659L54.0139 44.8201L55.2604 44.0328L57.2798 47.23C58.3636 48.946 57.9321 50.3961 56.4104 51.3573Z" fill="white"/>
<path d="M59.9931 49.0359L60.6124 41.7271L61.9038 41.3023L66.7409 46.8163L65.2768 47.2979L64.2251 46.0616L61.5332 46.947L61.4208 48.5663L59.9931 49.0359ZM61.6266 45.5457L63.3181 44.9893L61.7933 43.2031L61.6266 45.5457Z" fill="white"/>
<path d="M68.3771 46.4812L67.8715 39.7988L70.9263 39.5677C71.7759 39.5034 72.4424 39.6834 72.925 40.0981C73.3357 40.451 73.5649 40.9425 73.6133 41.5821L73.6148 41.6012C73.6964 42.68 73.1654 43.4018 72.3396 43.7811L74.1526 46.0441L72.4343 46.1742L70.8405 44.1442L69.6855 44.2316L69.8473 46.3699L68.3771 46.4812ZM69.5872 42.9333L71.0764 42.8206C71.8019 42.7657 72.1747 42.3631 72.1314 41.7903L72.1299 41.7712C72.0815 41.1316 71.6281 40.8491 70.9026 40.904L69.442 41.0145L69.5872 42.9333Z" fill="white"/>
<path d="M75.3519 46.0085L79.2996 39.8264L80.6404 40.051L82.3579 47.1821L80.8377 46.9275L80.4817 45.3438L77.6869 44.8757L76.8343 46.2568L75.3519 46.0085ZM78.4213 43.6786L80.1776 43.9727L79.6585 41.6823L78.4213 43.6786Z" fill="white"/>
<path d="M83.9593 47.6535L86.6781 41.5283L87.9206 42.0799L89.1167 47.1252L90.7907 43.3538L92.1207 43.9442L89.4019 50.0694L88.2556 49.5606L87.0177 44.35L85.2893 48.2439L83.9593 47.6535Z" fill="white"/>
<path d="M92.6112 52.0895L95.8443 47.837L94.2211 46.6028L95.0438 45.5206L99.464 48.8813L98.6412 49.9634L97.018 48.7293L93.7848 52.9818L92.6112 52.0895Z" fill="white"/>
<path d="M101.173 60.8894L107.079 57.7233L109.467 62.1785L108.311 62.7981L106.615 59.634L105.417 60.2762L106.909 63.0607L105.754 63.6803L104.261 60.8959L103.021 61.5608L104.739 64.7671L103.583 65.3867L101.173 60.8894Z" fill="white"/>
<path d="M104.337 67.1887L110.818 65.4839L111.483 68.0115C112.019 70.0484 110.991 71.8235 109.167 72.3032L109.148 72.3081C107.324 72.7879 105.538 71.7532 105.002 69.7163L104.337 67.1887ZM110.196 68.3501L109.906 67.2483L105.999 68.276L106.289 69.3778C106.593 70.5351 107.59 71.1243 108.738 70.8224L108.756 70.8175C109.904 70.5155 110.5 69.5074 110.196 68.3501Z" fill="white"/>
<path d="M106.472 85.5787L105.537 84.5322L106.274 83.8716C105.966 83.2598 105.838 82.5812 105.92 81.8295C106.146 79.7739 107.84 78.4672 109.734 78.6752L109.753 78.6773C111.647 78.8852 113.034 80.5497 112.808 82.6052C112.582 84.6607 110.888 85.9675 108.995 85.7595L108.976 85.7574C108.262 85.679 107.648 85.3901 107.128 84.9573L106.472 85.5787ZM107.27 81.9969C107.233 82.33 107.269 82.6133 107.355 82.8827L108.397 81.9088L109.341 82.9564L108.231 83.942C108.493 84.096 108.792 84.1866 109.125 84.2232L109.144 84.2253C110.286 84.3507 111.329 83.6178 111.459 82.4377C111.589 81.2577 110.746 80.3369 109.604 80.2115L109.585 80.2094C108.443 80.084 107.399 80.8169 107.27 81.9969Z" fill="white"/>
<path d="M104.152 89.8622C104.786 88.178 106.106 87.499 107.961 88.198L111.544 89.5486L111.024 90.9282L107.477 89.591C106.446 89.2027 105.738 89.5085 105.417 90.3596C105.096 91.2106 105.409 91.9014 106.412 92.2795L110.004 93.6336L109.484 95.0132L105.946 93.6794C104.047 92.9635 103.517 91.5463 104.152 89.8622Z" fill="white"/>
<path d="M102.692 93.8741L106.604 100.079L105.83 101.196L98.6462 99.7128L99.5241 98.4459L101.109 98.7984L102.723 96.4692L101.836 95.1095L102.692 93.8741ZM103.493 97.6436L102.479 99.1072L104.772 99.6131L103.493 97.6436Z" fill="white"/>
<path d="M97.5514 100.976L102.063 105.931L100.973 106.924L97.3635 102.96L94.8929 105.209L93.9906 104.218L97.5514 100.976Z" fill="white"/>
<path d="M92.546 105.345L96.2067 110.958L94.9718 111.763L91.3111 106.15L92.546 105.345Z" fill="white"/>
<path d="M87.8583 107.942L90.0096 112.832L91.8761 112.011L92.4235 113.255L87.341 115.491L86.7936 114.247L88.6601 113.426L86.5088 108.536L87.8583 107.942Z" fill="white"/>
<path d="M81.0994 110.269L81.6047 112.862L84.9086 116.354L83.2172 116.684L81.1335 114.349L80.0504 117.3L78.406 117.621L80.163 113.172L79.6523 110.551L81.0994 110.269Z" fill="white"/>
<path d="M72.6092 111.239L68.73 117.464L67.3868 117.254L65.5908 110.143L67.1136 110.38L67.4871 111.96L70.2869 112.397L71.1242 111.007L72.6092 111.239ZM69.5657 113.602L67.8064 113.328L68.3506 115.612L69.5657 113.602Z" fill="white"/>
<path d="M63.9847 109.688L61.3263 115.84L60.0784 115.3L58.8327 110.267L57.1959 114.055L55.8602 113.477L58.5185 107.326L59.6698 107.823L60.959 113.021L62.6489 109.111L63.9847 109.688Z" fill="white"/>
<path d="M56.5496 106.257L52.4421 111.552L50.377 109.95C48.7129 108.659 48.4491 106.625 49.6051 105.135L49.6168 105.119C50.7728 103.629 52.8204 103.364 54.4845 104.655L56.5496 106.257ZM51.1927 108.898L52.0928 109.597L54.5691 106.404L53.6689 105.706C52.7233 104.973 51.574 105.111 50.8464 106.049L50.8347 106.064C50.1071 107.002 50.2471 108.165 51.1927 108.898Z" fill="white"/>
<path d="M47.117 97.1372L42.6283 100.034L43.7339 101.747L42.5917 102.484L39.581 97.8185L40.7233 97.0814L41.8289 98.7948L46.3176 95.8984L47.117 97.1372Z" fill="white"/>
<path d="M44.4004 92.6025L38.1106 94.9152L37.0534 92.0399C36.7593 91.2402 36.7503 90.5499 37.0173 89.9723C37.2446 89.4808 37.6548 89.126 38.2568 88.9046L38.2747 88.898C39.2901 88.5247 40.1296 88.8382 40.7202 89.5289L42.4015 87.1664L42.9962 88.7838L41.4791 90.8716L41.8789 91.9589L43.8916 91.2188L44.4004 92.6025ZM40.6568 92.4082L40.1414 91.0065C39.8903 90.3236 39.4012 90.075 38.862 90.2733L38.8441 90.2799C38.242 90.5012 38.0942 91.0146 38.3453 91.6975L38.8508 93.0723L40.6568 92.4082Z" fill="white"/>
<path d="M41.7598 82.6674C41.9655 84.4554 41.1022 85.663 39.1335 85.8895L35.3292 86.3272L35.1607 84.8625L38.9269 84.4292C40.0207 84.3034 40.511 83.7073 40.4071 82.8038C40.3031 81.9002 39.7092 81.4289 38.644 81.5515L34.8302 81.9903L34.6617 80.5256L38.4185 80.0934C40.4348 79.8614 41.5541 80.8794 41.7598 82.6674Z" fill="white"/>
<path d="M41.6006 75.2643C41.4914 76.2828 41.0405 77.2551 40.2314 77.9771L39.2867 76.9997C39.847 76.4435 40.2274 75.8585 40.3091 75.0969C40.3744 74.4877 40.1742 74.11 39.7839 74.0682L39.7648 74.0661C39.3936 74.0263 39.1692 74.2334 38.7738 75.3175C38.2957 76.6335 37.8136 77.4483 36.5 77.3075L36.4809 77.3055C35.272 77.1759 34.5755 76.1287 34.7224 74.758C34.8275 73.7775 35.2189 73.0011 35.8349 72.3739L36.8575 73.2538C36.3839 73.8096 36.0762 74.3447 36.015 74.9158C35.9537 75.487 36.1706 75.7991 36.5038 75.8348L36.5228 75.8368C36.9702 75.8848 37.1246 75.6125 37.5527 74.4933C38.0593 73.1804 38.6169 72.4699 39.7782 72.5944L39.7972 72.5965C41.1204 72.7383 41.7547 73.8269 41.6006 75.2643Z" fill="white"/>
<path d="M42.6066 69.5732L37.5278 67.9168L36.8956 69.8555L35.6031 69.434L37.3248 64.155L38.6172 64.5765L37.985 66.5152L43.0637 68.1715L42.6066 69.5732Z" fill="white"/>
<g filter="url(#filter1_d_1_762)">
<path d="M133.831 85.4951C103.93 82.1635 82.4269 55.5293 85.801 26.006L133.831 85.4951Z" fill="#D19304"/>
</g>
<path d="M80.9943 90.2386L81.0094 90.2433L80.9943 90.2386ZM80.9943 90.2386C79.6941 90.9019 77.9743 90.1029 76.7143 89.7122C75.1677 89.2325 74.3279 89.3002 72.8774 90.0478C71.6423 90.6845 69.8509 91.9642 68.3643 91.5031C66.8778 91.0421 66.1491 88.9809 65.5045 87.7613C64.7474 86.329 64.0976 85.7994 62.551 85.3197C61.291 84.929 59.4174 84.6135 58.7348 83.3353C58.0467 82.0469 58.8593 80.3418 59.2576 79.0896C59.7609 77.5073 59.6419 76.6711 58.8591 75.1903C57.6947 72.9877 57.1126 71.8863 57.4438 70.8449C57.7751 69.8035 58.8905 69.2286 61.1212 68.0789C62.4599 67.389 63.25 66.5389 63.7061 65.1049C64.1019 63.8607 64.4214 62.0107 65.7159 61.3367C67.0208 60.6573 68.7477 61.4597 70.0158 61.8529C71.4681 62.3034 72.6261 62.1494 73.9648 61.4595C76.1955 60.3098 77.3109 59.7349 78.3657 60.062C79.4205 60.3891 80.0026 61.4905 81.167 63.6931C81.8656 65.0146 82.7263 65.7949 84.179 66.2454C85.439 66.6361 87.3128 66.9516 87.9954 68.2299C88.6833 69.5183 87.8707 71.2234 87.4724 72.4755C86.9691 74.0578 87.0883 74.894 87.8709 76.3748C89.0354 78.5775 89.6175 79.6787 89.2863 80.7202C88.955 81.7616 87.8396 82.3366 85.6088 83.4862C84.1091 84.2591 83.5272 84.878 83.0239 86.4602C82.6256 87.7124 82.3049 89.5701 80.9943 90.2386Z" fill="white"/>
<path d="M68.1421 75.7049C68.1421 75.7049 69.7267 77.3221 70.2042 79.1201C70.2042 79.1201 74.9453 74.1137 79.3915 73.3337" stroke="#FEB100" stroke-width="1.5" stroke-linecap="round" stroke-linejoin="round"/>
<defs>
<filter id="filter0_d_1_762" x="12.2041" y="14.6619" width="138.627" height="137.602" filterUnits="userSpaceOnUse" color-interpolation-filters="sRGB">
<feFlood flood-opacity="0" result="BackgroundImageFix"/>
<feColorMatrix in="SourceAlpha" type="matrix" values="0 0 0 0 0 0 0 0 0 0 0 0 0 0 0 0 0 0 127 0" result="hardAlpha"/>
<feOffset dx="2" dy="4"/>
<feGaussianBlur stdDeviation="7.5"/>
<feComposite in2="hardAlpha" operator="out"/>
<feColorMatrix type="matrix" values="0 0 0 0 0.55024 0 0 0 0 0.0372809 0 0 0 0 0.132143 0 0 0 0.67 0"/>
<feBlend mode="normal" in2="BackgroundImageFix" result="effect1_dropShadow_1_762"/>
<feBlend mode="normal" in="SourceGraphic" in2="effect1_dropShadow_1_762" result="shape"/>
</filter>
<filter id="filter1_d_1_762" x="79.4525" y="24.006" width="60.3781" height="71.4891" filterUnits="userSpaceOnUse" color-interpolation-filters="sRGB">
<feFlood flood-opacity="0" result="BackgroundImageFix"/>
<feColorMatrix in="SourceAlpha" type="matrix" values="0 0 0 0 0 0 0 0 0 0 0 0 0 0 0 0 0 0 127 0" result="hardAlpha"/>
<feOffset dy="4"/>
<feGaussianBlur stdDeviation="3"/>
<feComposite in2="hardAlpha" operator="out"/>
<feColorMatrix type="matrix" values="0 0 0 0 0.494939 0 0 0 0 0.355869 0 0 0 0 0.0361871 0 0 0 0.68 0"/>
<feBlend mode="normal" in2="BackgroundImageFix" result="effect1_dropShadow_1_762"/>
<feBlend mode="normal" in="SourceGraphic" in2="effect1_dropShadow_1_762" result="shape"/>
</filter>
</defs>
</svg>
