<svg width="261" height="260" viewBox="0 0 261 260" fill="none" xmlns="http://www.w3.org/2000/svg">
<g filter="url(#filter0_d_1_872)">
<path d="M152.313 189.717C155.157 186.423 156.58 184.776 158.439 183.75C158.697 183.607 158.961 183.475 159.229 183.352C161.161 182.466 163.346 182.294 167.716 181.951C177.775 181.161 182.805 180.767 185.903 177.679C186.32 177.265 186.705 176.819 187.053 176.347C189.652 172.839 189.252 167.872 188.451 157.941C188.104 153.625 187.931 151.468 188.511 149.444C188.592 149.163 188.683 148.885 188.785 148.611C189.517 146.636 190.939 144.989 193.783 141.695L194.308 141.087C201.565 132.684 205.194 128.481 204.804 123.645C204.415 118.808 200.16 115.224 191.649 108.059L191.033 107.541C187.697 104.732 186.03 103.328 184.99 101.491C184.846 101.237 184.712 100.976 184.587 100.711C183.69 98.8033 183.516 96.6464 183.168 92.3309C182.369 82.3994 181.969 77.4328 178.842 74.3736C178.422 73.9623 177.971 73.5821 177.493 73.2378C173.94 70.6723 168.91 71.0677 158.851 71.8571C154.481 72.2001 152.296 72.3713 150.246 71.7986C149.962 71.7189 149.68 71.629 149.403 71.5282C147.402 70.8056 145.734 69.4012 142.398 66.5925L141.783 66.0744C133.272 58.9085 129.016 55.3256 124.118 55.7105C119.219 56.0947 115.59 60.2969 108.333 68.7007L107.808 69.3082C104.964 72.602 103.542 74.2488 101.682 75.275C101.423 75.4175 101.16 75.55 100.892 75.6733C98.9595 76.5589 96.7747 76.7301 92.404 77.0737C82.3457 77.8628 77.3161 78.2579 74.2175 81.3454C73.8012 81.7601 73.4162 82.206 73.0672 82.6774C70.4692 86.1863 70.8694 91.1521 71.6689 101.084C72.0163 105.4 72.1901 107.557 71.6097 109.581C71.5291 109.862 71.4379 110.14 71.3362 110.414C70.6043 112.389 69.1821 114.036 66.3375 117.33L65.8128 117.938C58.5554 126.341 54.9267 130.543 55.3162 135.38C55.7057 140.217 59.9612 143.8 68.4723 150.966L69.0877 151.484C72.4236 154.293 74.0916 155.697 75.1304 157.533C75.2747 157.788 75.4092 158.049 75.5338 158.313C76.4307 160.221 76.6045 162.379 76.9519 166.694C77.752 176.626 78.1516 181.592 81.2784 184.651C81.6985 185.062 82.15 185.443 82.6274 185.787C86.1812 188.352 91.2109 187.958 101.269 187.168C105.64 186.825 107.825 186.653 109.874 187.226C110.159 187.306 110.44 187.396 110.718 187.496C112.719 188.219 114.387 189.624 117.723 192.432L118.338 192.95C126.849 200.116 131.105 203.699 136.003 203.314C140.902 202.93 144.531 198.728 151.788 190.324L152.313 189.717Z" fill="#1CB0FF"/>
</g>
<g clip-path="url(#clip0_1_872)">
<path fill-rule="evenodd" clip-rule="evenodd" d="M122.249 105.468C119.074 106.505 116.804 109.028 115.953 112.012C113.647 111.996 111.429 112.898 109.787 114.518C108.145 116.138 107.214 118.344 107.199 120.651C107.184 122.958 108.085 125.176 109.706 126.817C111.326 128.459 113.532 129.39 115.838 129.405L118.393 137.224C118.87 138.685 119.909 139.897 121.28 140.593C122.651 141.289 124.243 141.411 125.704 140.934L140.4 136.132C141.862 135.655 143.074 134.616 143.769 133.245C144.465 131.874 144.588 130.282 144.11 128.821L141.556 121.003C143.366 119.613 144.558 117.568 144.874 115.307C145.191 113.047 144.606 110.753 143.246 108.92C141.886 107.087 139.861 105.862 137.606 105.509C135.351 105.156 133.048 105.703 131.193 107.032C129.945 106.058 128.476 105.406 126.916 105.133C125.356 104.86 123.753 104.975 122.249 105.468ZM122.067 136.023L121.467 134.186L139.836 128.184L140.436 130.021C140.596 130.508 140.555 131.039 140.323 131.496C140.091 131.953 139.687 132.299 139.2 132.458L124.504 137.26C124.017 137.419 123.486 137.378 123.029 137.146C122.572 136.914 122.226 136.51 122.067 136.023Z" fill="white"/>
</g>
<circle cx="127.799" cy="122.316" r="36.2993" transform="rotate(-25.2619 127.799 122.316)" stroke="white" stroke-opacity="0.3" stroke-width="0.5"/>
<path d="M91.68 99.9916L86.0415 96.2453L85.517 97.703L84.0046 97.1718L84.76 94.698L85.4765 93.6196L92.7172 98.4305L91.68 99.9916Z" fill="white"/>
<path d="M98.7382 91.613C97.0217 93.1711 94.6149 92.7578 92.9243 90.8952L92.9077 90.877C91.2253 89.0235 91.0489 86.5358 92.7562 84.986C94.4454 83.4528 96.8796 83.8412 98.5702 85.7038L98.5868 85.722C100.269 87.5755 100.446 90.0632 98.7382 91.613ZM97.6045 90.3273C98.4537 89.5566 98.2216 88.2185 97.1608 87.0498L97.1442 87.0315C96.0917 85.8719 94.73 85.5092 93.89 86.2717C93.05 87.0342 93.2729 88.3806 94.3337 89.5493L94.3503 89.5675C95.4111 90.7362 96.7554 91.0981 97.6045 90.3273Z" fill="white"/>
<path d="M108.722 84.3125C106.625 85.3014 104.444 84.2034 103.371 81.9282L103.36 81.9059C102.292 79.6419 102.85 77.2112 104.936 76.2275C106.999 75.2544 109.214 76.3367 110.287 78.6118L110.297 78.6341C111.365 80.8981 110.807 83.3289 108.722 84.3125ZM108.013 82.7518C109.05 82.2626 109.219 80.9151 108.546 79.4875L108.535 79.4652C107.867 78.0488 106.671 77.3043 105.645 77.7882C104.618 78.2722 104.438 79.625 105.112 81.0525L105.122 81.0748C105.796 82.5024 106.976 83.241 108.013 82.7518Z" fill="white"/>
<path d="M118 76.125C116.765 76.2855 115.808 75.4275 115.652 74.2292L115.649 74.2047C115.491 72.9941 116.22 71.9047 117.455 71.7442C118.69 71.5837 119.647 72.4417 119.803 73.64L119.806 73.6645C119.964 74.875 119.235 75.9645 118 76.125ZM117.575 72.8601C117.05 72.9284 116.855 73.4387 116.93 74.0134L116.933 74.0379C117.007 74.6126 117.39 75.0726 117.88 75.0091C118.405 74.9407 118.597 74.406 118.526 73.8558L118.522 73.8313C118.448 73.2566 118.065 72.7966 117.575 72.8601ZM120.17 75.5072L122.482 71.1905L123.937 71.0014L121.112 76.0563L118.8 80.373L117.345 80.5621L120.17 75.5072ZM123.827 79.8194C122.592 79.9799 121.635 79.1219 121.479 77.9236L121.476 77.8991C121.318 76.6885 122.047 75.5991 123.282 75.4386C124.517 75.2781 125.474 76.136 125.63 77.3344L125.633 77.3589C125.791 78.5694 125.062 79.6589 123.827 79.8194ZM123.706 78.7035C124.232 78.6351 124.424 78.1004 124.352 77.5502L124.349 77.5257C124.275 76.951 123.891 76.4909 123.402 76.5545C122.877 76.6228 122.682 77.1331 122.756 77.7078L122.76 77.7323C122.834 78.307 123.217 78.767 123.706 78.7035Z" fill="white"/>
<path d="M141.862 81.7236C139.481 80.8388 138.395 78.3439 139.259 76.0206L139.267 75.9975C140.122 73.6973 142.556 72.4575 145.041 73.3809C146.555 73.9436 147.302 74.8 147.767 75.8147L146.149 76.6999C145.724 75.8973 145.24 75.3229 144.42 75.0179C143.056 74.5111 141.652 75.2788 141.137 76.6658L141.128 76.689C140.613 78.076 141.143 79.5884 142.53 80.1038C143.454 80.4474 144.154 80.2995 145.009 79.9462L145.716 81.5115C144.553 82.0922 143.434 82.3077 141.862 81.7236Z" fill="white"/>
<path d="M149.821 84.8338L154.981 77.9144L160.2 81.8066L159.19 83.1608L155.483 80.3965L154.437 81.8001L157.699 84.2328L156.689 85.587L153.427 83.1544L152.343 84.6074L156.099 87.4086L155.089 88.7628L149.821 84.8338Z" fill="white"/>
<path d="M159.071 92.096L165.97 86.9082L168.342 90.0619C169.001 90.939 169.269 91.787 169.154 92.5986C169.056 93.2892 168.682 93.8791 168.022 94.3757L168.002 94.3905C166.888 95.2279 165.736 95.1529 164.752 94.5204L163.555 98.0584L162.221 96.2845L163.317 93.1461L162.42 91.9536L160.213 93.6137L159.071 92.096ZM163.761 90.9457L164.917 92.4831C165.48 93.2321 166.176 93.357 166.767 92.9123L166.787 92.8975C167.447 92.401 167.439 91.7129 166.875 90.9639L165.741 89.4561L163.761 90.9457Z" fill="white"/>
<path d="M167.006 104.061L173.44 101.623L172.51 99.167L174.147 98.5467L176.681 105.235L175.043 105.855L174.113 103.399L167.678 105.836L167.006 104.061Z" fill="white"/>
<path d="M170.168 113.111L178.717 111.919L178.979 113.8L170.43 114.992L170.168 113.111Z" fill="white"/>
<path d="M170.986 120.664L179.585 121.418L179.011 127.965L177.291 127.815L177.7 123.159L175.869 122.999L175.509 127.101L173.79 126.951L174.15 122.848L170.821 122.556L170.986 120.664Z" fill="white"/>
<path d="M169.712 132.286L177.915 134.972L177.324 136.777L169.121 134.09L169.712 132.286Z" fill="white"/>
<path d="M167.127 139.43L174.515 143.893L171.148 149.466L169.702 148.592L172.093 144.635L170.595 143.729L168.49 147.212L167.044 146.339L169.149 142.856L167.597 141.918L165.174 145.929L163.728 145.055L167.127 139.43Z" fill="white"/>
<path d="M160.792 149.336L166.576 155.743L164.077 157.999C162.064 159.817 159.425 159.691 157.797 157.887L157.78 157.869C156.153 156.066 156.28 153.41 158.293 151.592L160.792 149.336ZM162.929 156.727L164.018 155.744L160.531 151.881L159.442 152.864C158.298 153.897 158.213 155.386 159.238 156.521L159.254 156.539C160.279 157.674 161.785 157.76 162.929 156.727Z" fill="white"/>
<path d="M144.392 161.185L146.701 169.502L143.303 170.445C141.318 170.996 139.795 170.165 139.32 168.454L139.314 168.43C138.776 166.493 140 165.091 141.865 164.574L143.255 164.188L142.563 161.693L144.392 161.185ZM143.707 165.816L142.257 166.218C141.343 166.472 140.96 167.167 141.157 167.88L141.164 167.903C141.392 168.723 142.084 169.005 142.999 168.751L144.413 168.358L143.707 165.816Z" fill="white"/>
<path d="M133.01 164.044L132.908 172.675L128.962 172.628C127.865 172.615 127.03 172.309 126.457 171.723C125.97 171.224 125.731 170.567 125.741 169.741L125.741 169.717C125.758 168.323 126.52 167.457 127.622 167.063L125.551 163.955L127.77 163.982L129.587 166.766L131.079 166.783L131.111 164.022L133.01 164.044ZM131.059 168.46L129.135 168.437C128.198 168.426 127.674 168.901 127.666 169.641L127.665 169.665C127.656 170.492 128.206 170.905 129.143 170.916L131.029 170.939L131.059 168.46Z" fill="white"/>
<path d="M116.695 162.11C119.221 162.955 120.404 165.444 119.625 167.771L119.618 167.794C118.839 170.121 116.366 171.413 113.84 170.569C111.314 169.724 110.131 167.235 110.909 164.908L110.917 164.884C111.695 162.557 114.169 161.265 116.695 162.11ZM116.116 163.763C114.666 163.278 113.277 164.087 112.808 165.491L112.8 165.514C112.331 166.917 112.968 168.431 114.419 168.916C115.869 169.401 117.258 168.591 117.727 167.188L117.735 167.164C118.204 165.761 117.566 164.248 116.116 163.763Z" fill="white"/>
<path d="M107.513 158.852L102.346 165.767L99.6496 163.752C97.4764 162.129 97.0893 159.515 98.5432 157.569L98.5579 157.55C100.012 155.603 102.643 155.214 104.816 156.838L107.513 158.852ZM100.675 162.379L101.851 163.258L104.965 159.089L103.79 158.211C102.555 157.288 101.078 157.493 100.163 158.718L100.148 158.738C99.2332 159.963 99.4407 161.457 100.675 162.379Z" fill="white"/>
<path d="M95.1973 147.747C96.5502 149.629 96.3364 151.529 94.2636 153.019L90.2583 155.897L89.1501 154.355L93.1154 151.505C94.2669 150.678 94.4447 149.7 93.761 148.748C93.0774 147.797 92.1137 147.639 90.9922 148.445L86.9769 151.331L85.8687 149.789L89.8239 146.947C91.9467 145.421 93.8444 145.864 95.1973 147.747Z" fill="white"/>
<path d="M88.8249 136.295C89.6309 138.704 88.3701 141.115 86.0197 141.901L85.9963 141.909C83.6692 142.688 81.1763 141.571 80.3352 139.057C79.8227 137.525 80.0203 136.406 80.5183 135.407L82.2231 136.111C81.8653 136.946 81.7218 137.683 81.9996 138.513C82.4613 139.893 83.9398 140.504 85.343 140.034L85.3664 140.027C86.7697 139.557 87.6143 138.195 87.1449 136.792C86.8319 135.856 86.2777 135.405 85.4661 134.961L86.2404 133.428C87.4225 133.969 88.2929 134.705 88.8249 136.295Z" fill="white"/>
<path d="M86.1615 126.14L79.287 126.43L79.3975 129.054L77.6481 129.128L77.3471 121.982L79.0965 121.909L79.2071 124.533L86.0816 124.243L86.1615 126.14Z" fill="white"/>
<defs>
<filter id="filter0_d_1_872" x="42.2878" y="44.6824" width="179.545" height="177.66" filterUnits="userSpaceOnUse" color-interpolation-filters="sRGB">
<feFlood flood-opacity="0" result="BackgroundImageFix"/>
<feColorMatrix in="SourceAlpha" type="matrix" values="0 0 0 0 0 0 0 0 0 0 0 0 0 0 0 0 0 0 127 0" result="hardAlpha"/>
<feOffset dx="2" dy="4"/>
<feGaussianBlur stdDeviation="7.5"/>
<feComposite in2="hardAlpha" operator="out"/>
<feColorMatrix type="matrix" values="0 0 0 0 0.12549 0 0 0 0 0.556863 0 0 0 0 0.784314 0 0 0 0.52 0"/>
<feBlend mode="normal" in2="BackgroundImageFix" result="effect1_dropShadow_1_872"/>
<feBlend mode="normal" in="SourceGraphic" in2="effect1_dropShadow_1_872" result="shape"/>
</filter>
<clipPath id="clip0_1_872">
<rect width="46.3807" height="46.3807" fill="white" transform="translate(98.4044 107.159) rotate(-18.0941)"/>
</clipPath>
</defs>
</svg>
