<svg width="150" height="219" viewBox="0 0 150 219" fill="none" xmlns="http://www.w3.org/2000/svg">
<path d="M28.6068 69.1903C26.0045 74.3821 20.594 76.14 15.6403 73.6571L15.5927 73.6332C10.8534 71.2577 8.82173 65.6205 11.3524 60.5716C12.8445 57.5947 14.5854 56.1429 16.9214 55.1683L18.5499 58.8751C16.8456 59.6001 15.6295 60.4805 14.6745 62.3858C13.3376 65.0531 14.6329 68.3545 17.467 69.775L17.5146 69.7989C20.563 71.3268 23.8521 70.3531 25.3323 67.4C26.0127 66.0425 26.2642 64.7085 26.0629 63.4454L23.6814 62.2517L21.8311 65.9431L18.6637 64.3555L22.2926 57.1155L29.5325 60.7444C30.1258 63.1873 30.1348 66.1419 28.6068 69.1903Z" fill="#D01215"/>
<path d="M40.1658 51.3319C36.9274 55.1523 32.8331 55.6979 28.6265 52.1322L20.4979 45.2421L23.1506 42.1126L31.1979 48.9338C33.5349 50.9147 35.6782 50.7758 37.3146 48.8452C38.951 46.9147 38.7776 44.8121 36.5016 42.8828L28.3527 35.9755L31.0053 32.846L39.0324 39.6499C43.3405 43.3017 43.4042 47.5114 40.1658 51.3319Z" fill="#D01215"/>
<path d="M47.7413 42.1819L43.2911 22.2622L46.3652 20.0577L63.8046 30.6627L60.3192 33.1621L56.4963 30.7569L50.0883 35.3521L51.1401 39.7445L47.7413 42.1819ZM49.1676 31.554L53.1943 28.6665L47.6569 25.196L49.1676 31.554Z" fill="#D01215"/>
<path d="M67.8689 28.4087L60.9545 11.0901L68.8716 7.92926C71.0735 7.05015 72.9929 6.97224 74.62 7.6708C76.0047 8.26532 77.0231 9.37903 77.6849 11.0367L77.7047 11.0861C78.8208 13.8819 78.013 16.241 76.137 17.9366L82.8371 22.4327L78.3838 24.2107L72.46 20.1504L69.4664 21.3456L71.679 26.8875L67.8689 28.4087ZM68.123 17.9808L71.9826 16.4399C73.8629 15.6892 74.5168 14.3094 73.9241 12.825L73.9044 12.7755C73.2425 11.1179 71.8032 10.7459 69.9229 11.4966L66.1376 13.0079L68.123 17.9808Z" fill="#D01215"/>
<path d="M85.9913 21.338L91.3167 1.63424L95.0634 1.11252L105.569 18.6119L101.321 19.2034L99.0556 15.2961L91.2456 16.3836L90.1338 20.7612L85.9913 21.338ZM92.1971 12.5931L97.1048 11.9097L93.8169 6.26199L92.1971 12.5931Z" fill="#D01215"/>
<path d="M110.213 18.528L112.324 0L116.083 0.42813L123.465 12.825L124.764 1.41705L128.787 1.87533L126.677 20.4033L123.21 20.0084L115.578 7.20777L114.237 18.9863L110.213 18.528Z" fill="#D01215"/>
<path d="M136.881 23.0904L141.919 9.10493L136.58 7.18204L137.862 3.62303L152.399 8.85906L151.117 12.4181L145.778 10.4952L140.741 24.4806L136.881 23.0904Z" fill="#D01215"/>
<path d="M150.559 28.5179L160.432 12.6985L172.365 20.1461L170.432 23.2421L161.958 17.9527L159.955 21.1618L167.412 25.8165L165.48 28.9126L158.022 24.2578L155.949 27.5799L164.536 32.9399L162.604 36.036L150.559 28.5179Z" fill="#D01215"/>
<path d="M166.948 39.3135L179.988 25.9832L190.043 35.8192L187.49 38.4281L180.349 31.4423L177.704 34.1465L183.988 40.294L181.436 42.9029L175.152 36.7554L172.413 39.5547L179.65 46.6337L177.098 49.2426L166.948 39.3135Z" fill="#D01215"/>
<path d="M180.601 53.398L196.385 43.4682L200.258 49.624C203.379 54.5847 202.13 60.1542 197.688 62.9487L197.643 62.9771C193.201 65.7716 187.594 64.5146 184.474 59.5539L180.601 53.398ZM197.123 51.5958L195.435 48.9125L185.92 54.8988L187.608 57.5821C189.381 60.4007 192.518 61.1341 195.314 59.3751L195.359 59.3467C198.155 57.5877 198.897 54.4144 197.123 51.5958Z" fill="#D01215"/>
<path d="M201.603 100.439L198.248 98.4406L199.654 96.0721C198.325 94.7052 197.42 93.0103 197.013 90.9456C195.898 85.3004 199.306 80.4186 204.507 79.3917L204.559 79.3814C209.76 78.3545 214.83 81.6166 215.945 87.2618C217.06 92.907 213.652 97.7887 208.451 98.8156L208.398 98.826C206.438 99.213 204.569 98.9576 202.825 98.2428L201.603 100.439ZM200.734 90.2651C200.915 91.1798 201.247 91.9016 201.7 92.5453L203.652 89.0915L207.033 91.0851L204.908 94.6273C205.733 94.8174 206.601 94.8091 207.515 94.6285L207.568 94.6182C210.704 93.999 212.863 91.183 212.223 87.9423C211.584 84.7015 208.579 82.9596 205.442 83.5788L205.39 83.5892C202.254 84.2084 200.094 87.0243 200.734 90.2651Z" fill="#D01215"/>
<path d="M199.015 113.746C199.296 108.745 202.234 105.842 207.739 106.151L218.378 106.749L218.148 110.845L207.616 110.253C204.557 110.082 202.93 111.484 202.788 114.011C202.646 116.538 204.052 118.111 207.031 118.278L217.697 118.878L217.467 122.974L206.961 122.383C201.322 122.067 198.734 118.746 199.015 113.746Z" fill="#D01215"/>
<path d="M198.485 125.613L214.044 138.824L212.92 142.436L192.613 144.488L193.887 140.392L198.387 140.007L200.73 132.477L197.243 129.607L198.485 125.613ZM203.754 134.953L202.282 139.684L208.792 139.115L203.754 134.953Z" fill="#D01215"/>
<path d="M190.76 148.754L206.869 158.148L204.802 161.692L191.915 154.177L187.232 162.208L184.01 160.329L190.76 148.754Z" fill="#D01215"/>
<path d="M181.114 164.525L195.513 176.375L192.906 179.542L178.507 167.693L181.114 164.525Z" fill="#D01215"/>
<path d="M170.836 175.33L180.624 186.518L184.894 182.781L187.385 185.628L175.757 195.803L173.266 192.956L177.536 189.219L167.748 178.032L170.836 175.33Z" fill="#D01215"/>
<path d="M154.832 187.142L158.336 193.606L170.019 200.121L165.803 202.406L158.324 197.945L157.91 206.685L153.812 208.906L154.767 195.631L151.225 189.097L154.832 187.142Z" fill="#D01215"/>
<path d="M133.101 196.797L127.994 216.558L124.253 217.121L113.555 199.739L117.796 199.101L120.104 202.983L127.902 201.809L128.965 197.419L133.101 196.797ZM126.992 205.61L122.092 206.347L125.442 211.958L126.992 205.61Z" fill="#D01215"/>
<path d="M108.912 199.871L106.984 218.419L103.221 218.028L95.7175 205.704L94.5304 217.125L90.5029 216.706L92.4309 198.158L95.902 198.519L103.659 211.244L104.884 199.453L108.912 199.871Z" fill="#D01215"/>
<path d="M86.3123 196.961L79.8231 214.444L73.005 211.913C67.5105 209.873 65.1142 204.693 66.9404 199.773L66.959 199.723C68.7852 194.803 73.9998 192.391 79.4942 194.431L86.3123 196.961ZM74.2935 208.441L77.2655 209.545L81.1776 199.005L78.2056 197.902C75.0838 196.743 72.148 198.069 70.9985 201.166L70.9799 201.216C69.8304 204.313 71.1717 207.283 74.2935 208.441Z" fill="#D01215"/>
<path d="M53.6666 180.617L44.1653 192.049L48.5292 195.676L46.1113 198.585L34.2285 188.709L36.6463 185.8L41.0102 189.427L50.5115 177.994L53.6666 180.617Z" fill="#D01215"/>
<path d="M42.6735 170.843L27.904 182.228L22.6997 175.476C21.2523 173.598 20.6528 171.773 20.88 170.017C21.0735 168.522 21.8665 167.238 23.2801 166.149L23.3223 166.116C25.7065 164.279 28.1966 164.411 30.3404 165.752L32.8341 158.078L35.7616 161.876L33.4748 168.684L35.4427 171.237L40.1689 167.594L42.6735 170.843ZM32.5732 173.449L30.0361 170.157C28.8001 168.554 27.2942 168.302 26.0282 169.278L25.986 169.31C24.5723 170.4 24.6079 171.886 25.8439 173.49L28.3322 176.718L32.5732 173.449Z" fill="#D01215"/>
<path d="M27.3791 146.67C29.4161 151.245 28.1312 155.17 23.0935 157.413L13.3588 161.747L11.6902 158L21.3275 153.709C24.1262 152.463 24.931 150.471 23.9016 148.16C22.8723 145.848 20.9026 145.091 18.1769 146.305L8.41794 150.65L6.7493 146.902L16.3623 142.622C21.5216 140.325 25.3421 142.094 27.3791 146.67Z" fill="#D01215"/>
<path d="M20.7834 127.149C21.3428 129.944 20.9566 132.901 19.4106 135.492L16.0875 133.685C17.1113 131.741 17.6334 129.871 17.2152 127.781C16.8806 126.109 16.0341 125.274 14.9631 125.488L14.9109 125.498C13.8921 125.702 13.4691 126.439 13.3232 129.647C13.1513 133.539 12.5509 136.105 8.9461 136.826L8.89385 136.836C5.5764 137.5 2.85413 135.301 2.10128 131.54C1.56279 128.849 1.95429 126.462 3.0668 124.283L6.51517 125.766C5.72131 127.637 5.3506 129.314 5.66429 130.881C5.97798 132.448 6.81399 133.096 7.72825 132.913L7.78049 132.903C9.00821 132.657 9.19095 131.805 9.39424 128.477C9.64447 124.569 10.5323 122.218 13.7191 121.58L13.7714 121.57C17.4023 120.843 19.994 123.204 20.7834 127.149Z" fill="#D01215"/>
<path d="M18.7087 111.201L3.8446 111.039L3.78262 116.713L0 116.671L0.168769 101.221L3.95139 101.263L3.88941 106.936L18.7535 107.099L18.7087 111.201Z" fill="#D01215"/>
</svg>
