<svg xmlns="http://www.w3.org/2000/svg" viewBox="0 0 1658 481" width="1658" height="481"><defs><linearGradient id="17543635765406816237" x1="-721.3787829875954" y1="25.51702880859375" x2="936.6212170124046" y2="25.51702880859375" gradientTransform="matrix(0.000603136,0,0,0.00207677,0.435089736,0.447007011)"><stop offset="0.465574" stop-color="#1f8fc8" stop-opacity="0.724" /><stop offset="1" stop-color="#1f8fc9" stop-opacity="0.725" /></linearGradient><radialGradient id="10864396456250885226" cx="936.9999999999995" cy="25.758494614771564" r="1658.3787829875946" gradientTransform="matrix(0.000602999,0,0,0.00207677,0.434990359,0.446505542)"><stop stop-color="#2593c8" stop-opacity="0.34" /><stop offset="0.173771" stop-color="#7cbcdf" stop-opacity="0.587" /><stop offset="0.531147" stop-color="#218ec9" /></radialGradient></defs><g transform="matrix(1,0,0,1,0,-0.241465806)">
<g>
	<g transform="matrix(1,0,0,1,829,241)">
		<g transform="matrix(1,0,0,1,-107.621217012,-25.517028809)">
			<g>
				<path d="M-721.3787829875954,-144.5734665385997 C-721.3787829875954,-144.5734665385997 -439.5094025751387,-94.73646092336531 -439.5094025751387,-94.73646092336531 C-392.7700805365621,-86.472468613795 -344.61607314892785,-95.10847020070906 -303.65841974516394,-119.09946751516219 C-303.65841974516394,-119.09946751516219 -254.42866934985034,-147.93546605031844 -254.42866934985034,-147.93546605031844 C-127.83060801842703,-222.08916401784774 25.29041615276992,-235.72026753347274 162.99095202391345,-185.0944626323497 C162.99095202391345,-185.0944626323497 397.7943650231548,-98.76845860402938 397.7943650231548,-98.76845860402938 C427.8774581270127,-87.70846104543563 460.1800148802729,-84.04346775930281 491.97280039942143,-88.08346104543563 C491.97280039942143,-88.08346104543563 936.6212170124047,-144.5734665385997 936.6212170124047,-144.5734665385997 C936.6212170124047,-144.5734665385997 936.6212170124047,266.27556300241594 936.6212170124047,266.27556300241594 C936.6212170124047,266.27556300241594 -721.3787829875954,266.27556300241594 -721.3787829875954,266.27556300241594 C-721.3787829875954,266.27556300241594 -721.3787829875954,-144.5734665385997 -721.3787829875954,-144.5734665385997 C-721.3787829875954,-144.5734665385997 -721.3787829875954,-144.5734665385997 -721.3787829875954,-144.5734665385997 Z" fill="url('#17543635765406816237')"/>
			</g>
			<g>
				<path d="M-721.3787829875951,-144.33200073242188 C-721.3787829875951,-144.33200073242188 -439.4450073242192,-94.4949951171875 -439.4450073242192,-94.4949951171875 C-392.6950073242192,-86.23100280761719 -344.52999877929733,-94.86700439453125 -303.56298828125045,-118.85800170898438 C-303.56298828125045,-118.85800170898438 -254.32199096679733,-147.69400024414063 -254.32199096679733,-147.69400024414063 C-127.6950073242192,-221.84769821166992 25.460998535155795,-235.47880172729492 163.19299316406205,-184.85299682617188 C163.19299316406205,-184.85299682617188 398.05004882812455,-98.52699279785156 398.05004882812455,-98.52699279785156 C428.14001464843705,-87.46699523925781 460.44995117187455,-83.802001953125 492.24999999999955,-87.84199523925781 C492.24999999999955,-87.84199523925781 936.9999999999995,-144.33200073242188 936.9999999999995,-144.33200073242188 C936.9999999999995,-144.33200073242188 936.9999999999995,266.51702880859375 936.9999999999995,266.51702880859375 C936.9999999999995,266.51702880859375 -721.3787829875951,266.51702880859375 -721.3787829875951,266.51702880859375 C-721.3787829875951,266.51702880859375 -721.3787829875951,-144.33200073242188 -721.3787829875951,-144.33200073242188 C-721.3787829875951,-144.33200073242188 -721.3787829875951,-144.33200073242188 -721.3787829875951,-144.33200073242188 Z" fill="url('#10864396456250885226')"/>
			</g>
		</g>
	</g>
</g></g></svg>