<?xml version="1.0"?>
<svg width="1442" height="570" xmlns="http://www.w3.org/2000/svg" xmlns:svg="http://www.w3.org/2000/svg">
 <defs>
  <filter color-interpolation-filters="sRGB" filterUnits="userSpaceOnUse" height="569.52" id="filter0_d_1_734" width="1746.38" x="-44.38" y="0">
   <feFlood flood-opacity="0" result="BackgroundImageFix"/>
   <feColorMatrix in="SourceAlpha" result="hardAlpha" type="matrix" values="0 0 0 0 0 0 0 0 0 0 0 0 0 0 0 0 0 0 127 0"/>
   <feOffset dy="-26"/>
   <feGaussianBlur stdDeviation="22"/>
   <feComposite in2="hardAlpha" operator="out"/>
   <feColorMatrix type="matrix" values="0 0 0 0 0 0 0 0 0 0 0 0 0 0 0 0 0 0 0.25 0"/>
   <feBlend in2="BackgroundImageFix"/>
   <feBlend in="SourceGraphic" in2="effect1_dropShadow_1_734"/>
  </filter>
  <linearGradient fx="0.66" fy="0.15" id="svg_11" spreadMethod="pad" x1="0.6" x2="0.98" y1="0.5" y2="0.37">
   <stop id="jq_stop_9852" offset="0" stop-color="#208EC8"/>
   <stop id="jq_stop_8958" offset="0.46" stop-color="#2792c7" stop-opacity="0.57"/>
  </linearGradient>
  <linearGradient fx="0.22" fy="0.28" id="svg_12" spreadMethod="pad" x1="0.69" x2="1" y1="0.51" y2="0">
   <stop id="jq_stop_9852" offset="0" stop-color="#208EC8"/>
   <stop id="jq_stop_8958" offset="0.37" stop-color="#2792c7" stop-opacity="0.57"/>
  </linearGradient>
 </defs>
 <g class="layer">
  <title>Layer 1</title>
  <g filter="url(#filter0_d_1_734)" id="svg_1">
   <path d="m-62.38,160.67l281.94,49.83c46.75,8.27 94.91,-0.37 135.88,-24.36l49.24,-28.83c126.62,-74.16 279.78,-87.79 417.51,-37.16l234.86,86.32c30.09,11.06 62.4,14.73 94.2,10.69l444.75,-56.49l0,410.85l-1658.38,0l0,-410.85z" fill="url(#svg_12)" id="svg_2" stroke="#000000" stroke-opacity="0"/>
   <path d="m-61.38,161.67l281.94,49.83c46.75,8.27 94.91,-0.37 135.88,-24.36l49.24,-28.83c126.62,-74.16 279.78,-87.79 417.51,-37.16l234.86,86.32c30.09,11.06 62.4,14.73 94.2,10.69l444.75,-56.49l0,410.85l-1658.38,0l0,-410.85z" fill="url(#svg_11)" id="svg_6" stroke="#000000" stroke-opacity="0"/>
  </g>
 </g>
</svg>