<svg width="30" height="30" viewBox="0 0 30 30" fill="none" xmlns="http://www.w3.org/2000/svg">
<path d="M25.3682 20.7461L22.0554 24.219C20.5125 25.8363 19.741 26.645 18.8919 27.0424C17.5932 27.6501 16.1115 27.6526 14.8147 27.0491C13.9667 26.6545 13.1976 25.8484 11.6596 24.2361C10.853 23.3905 10.4497 22.9678 10.1571 22.4875C9.71075 21.7549 9.44539 20.9169 9.3849 20.0489C9.34525 19.4799 9.42692 18.887 9.59027 17.701L10.3101 12.4756C10.4207 11.6727 11.0352 11.0482 11.8042 10.9574C12.8092 10.8387 13.6867 11.6617 13.6851 12.7215L13.6815 15.1385L19.3347 9.21237C19.9229 8.59588 20.8764 8.59588 21.4645 9.21237C22.0526 9.82887 22.0526 10.8284 21.4645 11.4449M21.4645 11.4449L22.8844 9.95654C23.4725 9.34005 24.426 9.34005 25.0141 9.95654C25.6022 10.573 25.6022 11.5726 25.0141 12.189L23.5942 13.6774M21.4645 11.4449L18.2699 14.7936M23.5942 13.6774C24.1824 13.0609 25.1359 13.0609 25.724 13.6774C26.3121 14.2939 26.3121 15.2934 25.724 15.9099L24.3041 17.3983M23.5942 13.6774L20.3996 17.0261M24.3041 17.3983C24.8922 16.7818 25.8457 16.7818 26.4339 17.3983C27.022 18.0148 27.022 19.0143 26.4339 19.6308L24.6591 21.4911M24.3041 17.3983L22.5294 19.2586" stroke="white" stroke-width="1.5" stroke-linecap="round" stroke-linejoin="round"/>
<path d="M15.3423 5.24223C15.9365 4.61491 15.9365 3.59781 15.3423 2.97048C14.7479 2.34317 13.7843 2.34317 13.19 2.97048L7.477 9.00073L7.48065 6.54127C7.48225 5.46288 6.59546 4.62537 5.57988 4.74615C4.80279 4.83856 4.18173 5.47401 4.06995 6.29105L3.34255 11.6084C3.17748 12.8151 3.09494 13.4185 3.135 13.9975C3.19613 14.8807 3.46429 15.7335 3.91538 16.479C4.21105 16.9676 4.61861 17.3979 5.43376 18.2582C5.59754 18.4311 5.7527 18.5949 5.90023 18.75M15.3423 5.24223L16.777 3.72773C17.3714 3.10041 18.335 3.10041 18.9293 3.72773C19.5236 4.35506 19.5236 5.37216 18.9293 5.99948M15.3423 5.24223L13.1393 7.5675" stroke="white" stroke-width="1.5" stroke-linecap="round" stroke-linejoin="round"/>
</svg>
