<svg width="23" height="32" viewBox="0 0 23 32" fill="none" xmlns="http://www.w3.org/2000/svg">
<g filter="url(#filter0_d_1_789)">
<path fill-rule="evenodd" clip-rule="evenodd" d="M11.8628 5.00509C11.3447 4.9686 10.8315 5.1313 10.4252 5.46093C10.0188 5.79056 9.74884 6.26304 9.66886 6.78466L8.93295 11.5862L7.08485 12.6561C6.6402 12.9137 6.26476 13.2787 5.99187 13.7186C5.71897 14.1586 5.55706 14.66 5.52049 15.1782L5.00796 22.4507C4.94912 23.2857 5.2191 24.1095 5.75853 24.7408C6.29795 25.3722 7.06263 25.7594 7.88434 25.8173L14.0808 26.254C14.9026 26.3119 15.714 26.0358 16.3366 25.4863C16.9593 24.9369 17.3421 24.1591 17.401 23.3241L17.9135 16.0516C17.95 15.5334 17.86 15.0142 17.6515 14.5403C17.443 14.0665 17.1225 13.6524 16.7184 13.3351L15.0386 12.0165L14.9834 7.15921C14.9774 6.63152 14.7764 6.12585 14.4202 5.74249C14.0641 5.35912 13.5789 5.12606 13.0608 5.08952L11.8628 5.00509ZM15.7053 17.9315L11.5743 17.6403C11.3004 17.621 11.0299 17.7131 10.8223 17.8962C10.6148 18.0794 10.4872 18.3386 10.4676 18.617C10.4479 18.8953 10.5379 19.1699 10.7177 19.3803C10.8975 19.5908 11.1524 19.7199 11.4263 19.7392L15.5573 20.0303L15.3355 23.1785C15.3159 23.4569 15.1882 23.7161 14.9807 23.8993C14.7731 24.0824 14.5027 24.1745 14.2288 24.1552L8.03226 23.7185C7.75835 23.6992 7.50346 23.5701 7.32365 23.3596C7.14384 23.1492 7.05385 22.8746 7.07346 22.5963L7.586 15.3238C7.59814 15.1511 7.65206 14.984 7.74297 14.8373C7.83387 14.6907 7.95895 14.569 8.1071 14.4831L9.95521 13.4132C10.2264 13.2561 10.4593 13.039 10.6366 12.7779C10.8139 12.5169 10.9309 12.2186 10.979 11.9055L11.7149 7.10392L12.9128 7.18835L12.968 12.0457C12.9717 12.3624 13.0457 12.6741 13.1846 12.9575C13.3235 13.2408 13.5237 13.4885 13.7702 13.682L15.45 15.0006C15.5846 15.1064 15.6914 15.2444 15.7608 15.4024C15.8303 15.5603 15.8602 15.7334 15.848 15.9061L15.7053 17.9315Z" fill="#990722"/>
</g>
<defs>
<filter id="filter0_d_1_789" x="0" y="0" width="22.9214" height="31.2616" filterUnits="userSpaceOnUse" color-interpolation-filters="sRGB">
<feFlood flood-opacity="0" result="BackgroundImageFix"/>
<feColorMatrix in="SourceAlpha" type="matrix" values="0 0 0 0 0 0 0 0 0 0 0 0 0 0 0 0 0 0 127 0" result="hardAlpha"/>
<feOffset/>
<feGaussianBlur stdDeviation="2.5"/>
<feComposite in2="hardAlpha" operator="out"/>
<feColorMatrix type="matrix" values="0 0 0 0 1 0 0 0 0 1 0 0 0 0 1 0 0 0 0.36 0"/>
<feBlend mode="normal" in2="BackgroundImageFix" result="effect1_dropShadow_1_789"/>
<feBlend mode="normal" in="SourceGraphic" in2="effect1_dropShadow_1_789" result="shape"/>
</filter>
</defs>
</svg>
