<svg width="16" height="15" viewBox="0 0 16 15" fill="none" xmlns="http://www.w3.org/2000/svg">
<path d="M3.83699 0.200306C4.8078 0.860482 5.54264 1.78803 6.16832 2.64031L6.65873 3.31267C6.81102 3.52023 6.8807 3.77091 6.85571 4.02132C6.83073 4.27173 6.71265 4.50612 6.52191 4.68391L5.47961 5.6559L5.58953 5.87381C5.85856 6.38202 6.32282 7.11388 7.02153 7.76617C7.504 8.2093 8.04792 8.5902 8.63879 8.89872L8.92088 9.03993L9.17224 9.15605L9.28446 9.20407L10.326 8.23209C10.5174 8.05383 10.7699 7.94391 11.0393 7.9215C11.3087 7.8991 11.5781 7.96564 11.8003 8.10952L12.5797 8.61343C13.4652 9.19404 14.3899 9.85565 15.1086 10.7144C15.2328 10.8634 15.3118 11.0408 15.3374 11.2281C15.3629 11.4153 15.3341 11.6055 15.2538 11.7788C14.6105 13.1788 12.9825 14.3708 11.2891 14.312L11.0585 14.3005L10.8794 14.2862L10.6811 14.2647L10.4651 14.2375L10.2307 14.2009L9.98009 14.155L9.71414 14.0998L9.43281 14.0325L9.13688 13.9536L8.82788 13.8604C7.40894 13.4117 5.60797 12.53 3.76012 10.8068C1.91304 9.08437 0.967593 7.4049 0.486414 6.08168L0.386489 5.79352L0.301937 5.51755L0.229683 5.2552L0.169728 5.00719C0.152411 4.92951 0.136267 4.85161 0.121303 4.77351L0.0828698 4.55489L0.0521235 4.35347L0.0298325 4.16853L0.0144593 4.00152L0.00216083 3.78647C-0.0601004 2.21237 1.23201 0.683432 2.72628 0.0863347C2.90613 0.0139139 3.10308 -0.013659 3.2978 0.00632192C3.49252 0.0263028 3.67833 0.0931509 3.83699 0.200306ZM3.12444 1.49629C2.30044 1.8977 1.50258 2.81521 1.53871 3.73343L1.55408 3.96854L1.57099 4.11549L1.59328 4.28035L1.62403 4.4617L1.66323 4.66026L1.71319 4.87387L1.77468 5.10324L1.84847 5.34624L1.9361 5.60285C1.96838 5.6903 2.00221 5.77991 2.0391 5.87166L2.15747 6.15264L2.29276 6.44438C2.77547 7.435 3.56258 8.59479 4.84854 9.79329C6.13374 10.9918 7.37742 11.7265 8.43971 12.1767L8.75255 12.3028L9.05386 12.4132C9.15225 12.4476 9.24833 12.4792 9.34211 12.5093L9.61729 12.591L9.87863 12.6598L10.1238 12.7171L10.3529 12.7637L10.5658 12.8003L10.761 12.8289L10.9378 12.8505L11.0946 12.8648L11.3468 12.8791C12.3183 12.9128 13.3099 12.1731 13.7388 11.4147C13.1915 10.8162 12.512 10.3252 11.7626 9.83056L11.1877 9.45711L11.0416 9.59975L10.7295 9.91729L10.5643 10.0793C10.1138 10.5072 9.58808 10.8706 8.95778 10.6334L8.78406 10.5653L8.57191 10.4764L8.45354 10.4241L8.19374 10.3029L7.90856 10.1596C7.18689 9.78505 6.52311 9.32086 5.93542 8.77973C5.35515 8.23168 4.85738 7.61268 4.45576 6.93969L4.30203 6.67448L4.17135 6.43148L4.0207 6.12325L3.94691 5.95982C3.70785 5.4086 4.03684 4.9434 4.45729 4.54055L4.62947 4.38285L5.05762 4.01513L5.21135 3.87894L4.84777 3.3822C4.30741 2.65106 3.77934 1.9916 3.12368 1.49557L3.12444 1.49629ZM10.0908 2.77722L10.1799 2.78653C10.7395 2.87857 11.2534 3.13343 11.648 3.51458C12.0426 3.89573 12.2977 4.3836 12.3768 4.90827C12.4049 5.08975 12.3575 5.2744 12.2441 5.42423C12.1307 5.57406 11.9601 5.67767 11.7673 5.71376C11.5745 5.74985 11.3742 5.71566 11.2076 5.61823C11.041 5.5208 10.9208 5.36754 10.8717 5.18998L10.8541 5.10754C10.8231 4.90189 10.729 4.70899 10.5831 4.55215C10.4371 4.39531 10.2456 4.28124 10.0316 4.22372L9.91245 4.19864C9.71944 4.16673 9.54679 4.06727 9.42981 3.92059C9.31284 3.77391 9.26037 3.5911 9.28315 3.40954C9.30593 3.22798 9.40223 3.0614 9.55235 2.94386C9.70248 2.82632 9.89508 2.76671 10.0908 2.77722ZM10.0962 0.598132C11.3193 0.598132 12.4924 1.05125 13.3573 1.85781C14.2222 2.66437 14.7081 3.7583 14.7081 4.89895C14.7079 5.08165 14.6329 5.25738 14.4984 5.39023C14.3639 5.52308 14.1801 5.60302 13.9845 5.61373C13.7889 5.62444 13.5963 5.5651 13.4461 5.44784C13.2959 5.33057 13.1993 5.16424 13.1762 4.98282L13.1708 4.89895C13.1711 4.17098 12.8743 3.47019 12.3406 2.93887C11.807 2.40755 11.0765 2.08553 10.2975 2.03819L10.0962 2.03174C9.8923 2.03174 9.69679 1.95622 9.55264 1.82179C9.40849 1.68737 9.3275 1.50504 9.3275 1.31494C9.3275 1.12483 9.40849 0.942506 9.55264 0.808079C9.69679 0.673653 9.8923 0.598132 10.0962 0.598132Z" fill="white"/>
</svg>
