<svg width="42" height="42" viewBox="0 0 42 42" fill="none" xmlns="http://www.w3.org/2000/svg">
<path d="M28.5512 35.2651L28.5663 35.2698L28.5512 35.2651ZM28.5512 35.2651C27.251 35.9284 25.5312 35.1294 24.2712 34.7386C22.7246 34.259 21.8848 34.3267 20.4343 35.0743C19.1992 35.711 17.4078 36.9907 15.9213 36.5296C14.4347 36.0686 13.7061 34.0074 13.0614 32.7878C12.3043 31.3555 11.6546 30.8259 10.1079 30.3462C8.84794 29.9554 6.97432 29.64 6.29171 28.3618C5.60361 27.0734 6.41622 25.3683 6.81453 24.1161C7.31784 22.5338 7.19882 21.6976 6.41606 20.2168C5.25165 18.0142 4.66949 16.9128 5.0007 15.8714C5.33201 14.83 6.44738 14.2551 8.67813 13.1054C10.0168 12.4155 10.8069 11.5654 11.263 10.1314C11.6588 8.88721 11.9783 7.03719 13.2728 6.36318C14.5777 5.6838 16.3046 6.48617 17.5727 6.87944C19.025 7.32985 20.183 7.17592 21.5217 6.486C23.7525 5.33627 24.8678 4.7614 25.9226 5.08852C26.9774 5.41564 27.5596 6.51696 28.7239 8.71961C29.4225 10.0411 30.2833 10.8214 31.7359 11.2719C32.9959 11.6626 34.8697 11.9781 35.5523 13.2564C36.2403 14.5448 35.4276 16.2499 35.0293 17.502C34.526 19.0843 34.6452 19.9205 35.4278 21.4013C36.5923 23.6039 37.1745 24.7052 36.8432 25.7467C36.5119 26.788 35.3965 27.363 33.1657 28.5127C31.666 29.2856 31.0841 29.9045 30.5808 31.4867C30.1825 32.7389 29.8618 34.5966 28.5512 35.2651Z" fill="white"/>
<path d="M15.699 20.7313C15.699 20.7313 17.2836 22.3485 17.7611 24.1465C17.7611 24.1465 22.5022 19.1401 26.9484 18.36" stroke="#FEB100" stroke-width="1.5" stroke-linecap="round" stroke-linejoin="round"/>
</svg>
