<svg width="59" height="59" viewBox="0 0 59 59" fill="none" xmlns="http://www.w3.org/2000/svg">
<path fill-rule="evenodd" clip-rule="evenodd" d="M23.8441 12.7134C20.6698 13.7505 18.3998 16.2732 17.549 19.2572C15.2425 19.2419 13.0243 20.1436 11.3825 21.7638C9.74072 23.384 8.8098 25.59 8.79453 27.8966C8.77927 30.2032 9.68091 32.4213 11.3011 34.0631C12.9213 35.7049 15.1274 36.6358 17.4339 36.6511L19.9884 44.4692C20.4659 45.9308 21.5045 47.1428 22.8757 47.8386C24.2469 48.5344 25.8383 48.657 27.2999 48.1795L41.9955 43.3779C43.4571 42.9003 44.6691 41.8617 45.3649 40.4905C46.0608 39.1194 46.1834 37.528 45.7058 36.0664L43.1514 28.2483C44.9619 26.8587 46.1537 24.8133 46.4699 22.5531C46.7861 20.2928 46.2013 17.9988 44.8416 16.1658C43.4819 14.3328 41.4563 13.1076 39.2015 12.7544C36.9467 12.4013 34.6435 12.9484 32.7885 14.2779C31.5403 13.3035 30.0715 12.6511 28.5117 12.3783C26.9519 12.1055 25.3489 12.2205 23.8441 12.7134ZM23.6623 43.2688L23.0621 41.4318L41.4317 35.4298L42.0319 37.2668C42.1911 37.754 42.1502 38.2844 41.9183 38.7415C41.6863 39.1986 41.2823 39.5448 40.7951 39.7039L26.0995 44.5055C25.6123 44.6647 25.0818 44.6239 24.6247 44.3919C24.1677 44.16 23.8215 43.756 23.6623 43.2688Z" fill="white"/>
</svg>
