<svg width="29" height="29" viewBox="0 0 29 29" fill="none" xmlns="http://www.w3.org/2000/svg">
<path d="M6.11246 14.1884C8.43071 14.4736 10.5501 12.7522 10.8464 10.3436C11.1426 7.93501 8.38447 5.61374 9.38638 2.41669C4.42829 3.13503 2.71945 7.13055 2.45127 9.3111C2.15506 11.7197 3.79423 13.9033 6.11246 14.1884Z" stroke="white" stroke-width="1.5" stroke-linejoin="round"/>
<path d="M8.45835 24.1667C6.13275 18.5168 5.76367 13.5262 6.20209 9.66669" stroke="white" stroke-width="1.5" stroke-linejoin="round"/>
<path d="M11.4887 21.349C12.9084 24.2394 16.3374 25.0366 19.1476 23.1293C21.9578 21.2221 22.3998 15.9377 26.5833 14.0953C22.119 9.15008 16.5507 10.9354 14.0065 12.662C11.1963 14.5692 10.069 18.4585 11.4887 21.349Z" stroke="white" stroke-width="1.5" stroke-linejoin="round"/>
<path d="M7.25 26.5834C10.1232 21.6345 13.6111 18.6446 16.9167 16.9167" stroke="white" stroke-width="1.5" stroke-linejoin="round"/>
</svg>
