<svg width="21" height="27" viewBox="0 0 21 27" fill="none" xmlns="http://www.w3.org/2000/svg">
<g filter="url(#filter0_d_1_759)">
<path fill-rule="evenodd" clip-rule="evenodd" d="M10.9374 5.01074C10.5366 4.96443 10.1327 5.06857 9.80593 5.30251C9.47917 5.53645 9.25338 5.8831 9.17335 6.27372L8.43688 9.86935L6.96561 10.6095C6.61163 10.7877 6.30766 11.0494 6.08071 11.3714C5.85375 11.6935 5.71082 12.0658 5.6646 12.4555L5.01643 17.9233C4.94201 18.5511 5.12321 19.1823 5.52016 19.6782C5.9171 20.174 6.49729 20.4939 7.13307 20.5674L11.9275 21.1215C12.5633 21.195 13.2026 21.016 13.7048 20.6241C14.207 20.2322 14.5309 19.6593 14.6054 19.0315L15.2535 13.5637C15.2997 13.174 15.2477 12.7791 15.1022 12.4141C14.9567 12.049 14.7222 11.725 14.4194 11.471L13.161 10.4153L13.2854 6.74896C13.2989 6.35065 13.1603 5.96188 12.8971 5.65976C12.6339 5.35763 12.2653 5.16422 11.8644 5.11787L10.9374 5.01074ZM13.4749 14.9018L10.2785 14.5324C10.0666 14.5079 9.85352 14.5675 9.68612 14.6982C9.51872 14.8288 9.41075 15.0198 9.38594 15.229C9.36114 15.4383 9.42153 15.6487 9.55385 15.814C9.68617 15.9793 9.87956 16.0859 10.0915 16.1104L13.2878 16.4798L13.0072 18.8468C12.9824 19.0561 12.8744 19.247 12.707 19.3777C12.5396 19.5083 12.3265 19.568 12.1146 19.5435L7.32013 18.9894C7.1082 18.9649 6.91481 18.8582 6.78249 18.693C6.65018 18.5277 6.58978 18.3173 6.61459 18.108L7.26275 12.6402C7.27813 12.5103 7.32573 12.3862 7.40133 12.2789C7.47694 12.1715 7.57821 12.0843 7.69616 12.0248L9.16742 11.2847C9.38332 11.176 9.57158 11.0207 9.71815 10.8302C9.86472 10.6396 9.96583 10.4189 10.0139 10.1844L10.7504 6.58875L11.6773 6.69588L11.5529 10.3623C11.5449 10.6014 11.5916 10.8392 11.6897 11.058C11.7877 11.2768 11.9346 11.4709 12.1192 11.6258L13.3776 12.6814C13.4785 12.7662 13.5566 12.8742 13.605 12.9958C13.6535 13.1175 13.6708 13.2491 13.6554 13.379L13.4749 14.9018Z" fill="white"/>
</g>
<defs>
<filter id="filter0_d_1_759" x="0" y="0" width="20.2699" height="26.1376" filterUnits="userSpaceOnUse" color-interpolation-filters="sRGB">
<feFlood flood-opacity="0" result="BackgroundImageFix"/>
<feColorMatrix in="SourceAlpha" type="matrix" values="0 0 0 0 0 0 0 0 0 0 0 0 0 0 0 0 0 0 127 0" result="hardAlpha"/>
<feOffset/>
<feGaussianBlur stdDeviation="2.5"/>
<feComposite in2="hardAlpha" operator="out"/>
<feColorMatrix type="matrix" values="0 0 0 0 1 0 0 0 0 1 0 0 0 0 1 0 0 0 0.36 0"/>
<feBlend mode="normal" in2="BackgroundImageFix" result="effect1_dropShadow_1_759"/>
<feBlend mode="normal" in="SourceGraphic" in2="effect1_dropShadow_1_759" result="shape"/>
</filter>
</defs>
</svg>
