<svg width="115" height="68" viewBox="0 0 115 68" fill="none" xmlns="http://www.w3.org/2000/svg">
<path fill-rule="evenodd" clip-rule="evenodd" d="M53.7739 0C54.1543 0 54.5346 0 54.915 0C55.6472 0.222407 56.3604 0.531452 57.0546 0.927137C57.8605 1.7232 58.6686 2.53148 59.4794 3.35196C60.4716 3.80049 61.4225 4.32348 62.3321 4.92096C64.1684 7.23336 66.213 9.37291 68.4655 11.3396C68.7507 11.4347 69.036 11.4347 69.3213 11.3396C69.6595 10.9536 70.0397 10.6208 70.4624 10.3411C71.6481 10.1343 72.6702 10.4434 73.5291 11.2683C73.784 11.8497 74.093 12.3965 74.4562 12.9086C75.019 12.9607 75.4945 12.7706 75.8826 12.338C76.2153 12.243 76.5482 12.243 76.881 12.338C77.6387 13.143 78.447 13.9038 79.3058 14.6202C80.6864 15.4529 82.0178 16.3564 83.2997 17.3303C83.9653 18.2336 84.6309 19.1371 85.2966 20.0404C86.599 20.6767 87.7401 21.5325 88.7198 22.6079C89.9679 23.2616 91.2516 23.8321 92.571 24.3195C93.7175 25.177 94.8586 26.0329 95.9943 26.887C97.8376 27.6185 99.6444 28.4269 101.414 29.3118C102.406 29.97 103.357 30.6832 104.267 31.4513C104.898 32.0294 105.397 32.6713 105.765 33.3769C103.808 31.7442 101.692 30.3415 99.4176 29.1691C96.8363 28.4019 94.5541 27.1182 92.571 25.318C91.0137 24.6487 89.4924 23.9117 88.0067 23.1071C87.5997 22.5812 87.1243 22.1296 86.5803 21.7521C84.8687 20.9914 83.6324 19.7551 82.8717 18.0435C81.6268 17.1318 80.3431 16.276 79.0206 15.476C78.1692 14.7676 77.361 14.0068 76.5957 13.1939C76.4531 13.0988 76.3105 13.0988 76.1678 13.1939C75.625 13.6444 75.0068 13.8346 74.3136 13.7644C73.6027 13.2415 73.1034 12.5521 72.8159 11.6962C72.1653 11.1794 71.4283 11.013 70.605 11.197C70.2668 11.5829 69.8866 11.9158 69.4639 12.1954C69.036 12.2905 68.6081 12.2905 68.1802 12.1954C66.5474 10.6581 64.9071 9.11291 63.2592 7.55973C62.7125 6.82277 62.1657 6.08582 61.6189 5.34887C60.8531 4.96756 60.0924 4.5872 59.3367 4.20777C58.2379 3.15617 57.0968 2.15772 55.9135 1.21241C54.4673 0.444054 53.445 0.800645 52.8468 2.28218C51.6465 3.42688 50.5291 4.63929 49.4948 5.91941C48.8169 6.27005 48.175 6.67419 47.5692 7.13182C47.2954 7.53674 47.0576 7.96465 46.8561 8.41555C45.6869 9.55138 44.5696 10.7162 43.5041 11.9101C42.9999 11.9201 42.572 11.7299 42.2204 11.3396C41.4203 11.2865 40.7071 11.5242 40.0808 12.0528C38.8235 13.2631 37.4446 14.3091 35.9444 15.1908C35.3155 15.3056 34.7449 15.163 34.2327 14.7629C33.765 14.1979 33.1945 13.8651 32.5211 13.7644C30.1476 16.0426 27.7703 18.3248 25.3893 20.611C23.9882 21.1734 22.6094 21.7914 21.2528 22.4652C20.8437 23.0248 20.4872 23.6192 20.1831 24.2482C18.8936 25.4506 17.5386 26.568 16.1179 27.6001C13.6858 30.1048 11.0233 32.3157 8.13027 34.2327C8.13027 34.1376 8.08273 34.0901 7.98764 34.0901C11.4936 30.6553 15.1547 27.3983 18.9706 24.3195C19.5651 23.3704 20.2307 22.4669 20.9676 21.6094C21.9758 21.0988 23.0219 20.6709 24.1056 20.3257C24.7229 20.0648 25.2934 19.732 25.8172 19.3272C28.0042 17.3303 30.0963 15.2383 32.0932 13.0512C32.502 12.8434 32.9299 12.7959 33.3769 12.9086C33.9951 13.5516 34.7083 14.0508 35.5165 14.4063C36.4834 13.7973 37.4344 13.1555 38.3692 12.4807C39.1055 11.6969 39.9613 11.0788 40.9366 10.6264C41.7632 10.5376 42.5715 10.5852 43.3615 10.769C44.8382 9.67334 46.0031 8.3183 46.8561 6.70391C47.5066 6.08113 48.2436 5.5819 49.0669 5.20623C49.9839 4.00342 51.0062 2.88611 52.1336 1.85427C52.4617 1.02788 53.0084 0.409787 53.7739 0Z" fill="#212121"/>
<path fill-rule="evenodd" clip-rule="evenodd" d="M54.0592 3.99382C54.2478 3.96957 54.4142 4.01713 54.5584 4.13646C55.0955 4.986 55.5234 5.88936 55.8422 6.84655C56.1749 7.17936 56.5078 7.51219 56.8406 7.845C56.8591 8.47985 56.9541 9.09793 57.1259 9.69928C58.0292 10.3174 58.9327 10.9355 59.836 11.5535C59.9554 12.0948 59.9079 12.6178 59.6933 13.1225C58.991 13.721 58.373 13.6259 57.8391 12.8373C57.495 12.1015 57.1146 11.3883 56.698 10.6977C56.3508 10.4805 55.9704 10.3378 55.5569 10.2698C55.558 9.17818 55.0826 8.36992 54.1305 7.845C54.0354 7.65483 53.9404 7.46463 53.8452 7.27446C53.7501 7.46463 53.6551 7.65483 53.56 7.845C52.8411 8.46451 52.1279 9.0826 51.4204 9.69928C51.2926 10.0594 51.3639 10.3685 51.6344 10.6264C52.1648 10.6818 52.6879 10.7769 53.2034 10.9117C53.3884 11.2746 53.3647 11.6312 53.1321 11.9815C52.6567 12.3618 52.1811 12.7422 51.7057 13.1225C51.5501 13.6874 51.4074 14.258 51.2778 14.8342C49.5112 15.8485 47.7758 16.9182 46.0716 18.0435C45.2072 18.3094 44.399 18.6896 43.6467 19.1846C42.9694 20.0346 42.1849 20.7716 41.2932 21.3955C40.4849 22.4414 39.6767 23.4875 38.8684 24.5335C39.1607 22.9054 39.9689 21.5742 41.2932 20.5396C41.6424 19.9527 42.0465 19.406 42.5056 18.8993C43.6205 18.0695 44.6428 17.1423 45.5723 16.1179C45.7794 15.2277 46.2073 14.4669 46.8561 13.8357C47.6644 13.2176 48.4726 12.5995 49.2809 11.9815C49.4595 11.6229 49.5308 11.2426 49.4948 10.8404C48.8842 10.9311 48.3137 11.1451 47.7832 11.4822C47.1175 12.0528 46.452 12.6233 45.7863 13.1939C45.5231 13.3548 45.2379 13.4261 44.9305 13.4078C44.9076 13.1655 44.9313 12.9277 45.0018 12.6946C45.7726 11.7815 46.6761 11.0208 47.7119 10.4125C47.9972 9.84191 48.2824 9.27137 48.5677 8.70082C49.2986 8.15706 50.0831 7.70538 50.9212 7.34577C51.429 6.69492 51.8807 6.00552 52.2762 5.27755C52.8424 4.79411 53.4367 4.3662 54.0592 3.99382Z" fill="#1C1C1C"/>
<path fill-rule="evenodd" clip-rule="evenodd" d="M69.7492 13.1225C70.9041 13.0219 71.546 13.5449 71.6748 14.6915C72.0819 14.9908 72.4623 15.3236 72.8159 15.69C72.9445 16.4227 73.2298 17.0883 73.6717 17.6869C73.7527 18.075 73.8002 18.4554 73.8143 18.828C73.0732 18.1354 72.5027 17.327 72.1027 16.4032C71.6324 16.0758 71.2045 15.6954 70.819 15.2621C70.593 14.6666 70.2601 14.1436 69.8205 13.6931C69.7506 13.5086 69.7268 13.3184 69.7492 13.1225Z" fill="#1F1F1F"/>
<path fill-rule="evenodd" clip-rule="evenodd" d="M40.9366 14.4063C41.0789 14.402 41.174 14.4733 41.2219 14.6202C40.7827 15.8546 40.0457 16.8769 39.0111 17.6869C37.9765 19.1973 36.7403 20.5285 35.3025 21.6807C34.8683 22.4115 34.4879 23.1721 34.1614 23.9629C33.7181 24.5027 33.1951 24.9306 32.5924 25.2466C32.4469 24.6461 32.5896 24.1231 33.0203 23.6776C33.4947 23.0606 34.0178 22.4901 34.5893 21.966C34.8469 21.3358 35.1322 20.7178 35.4451 20.1117C36.1345 19.6125 36.7289 19.0181 37.2281 18.3288C36.9236 18.2382 36.6383 18.2858 36.3723 18.4714C35.6674 19.1438 35.1206 19.9283 34.732 20.8249C34.2287 21.4204 33.6344 21.8958 32.949 22.2513C32.8034 22.1797 32.7796 22.0847 32.8777 21.966C33.8522 20.9437 34.6605 19.8026 35.3025 18.5427C37.2466 17.2385 39.1247 15.8597 40.9366 14.4063Z" fill="#1F1F1F"/>
<path fill-rule="evenodd" clip-rule="evenodd" d="M65.4701 14.4063C65.8176 14.3802 66.1267 14.4753 66.3972 14.6915C66.8514 16.6722 67.6121 18.5265 68.6794 20.2544C69.0014 22.2016 68.2169 23.4615 66.3259 24.0342C65.7364 24.4808 65.1897 24.9801 64.6856 25.5319C64.4222 26.2728 64.0656 26.9623 63.6158 27.6001C62.6007 28.4842 61.5071 29.1261 60.3352 29.5257C60.5376 29.2639 60.7041 28.9786 60.8344 28.6699C61.6 27.9522 62.3131 27.1915 62.974 26.3877C63.3508 25.4502 63.6836 24.4992 63.9724 23.535C64.816 22.8719 65.5768 22.1111 66.2546 21.2528C66.3114 20.3462 66.2639 19.4429 66.112 18.5427C65.5414 17.9722 64.9709 17.9722 64.4003 18.5427C64.174 19.5429 63.6747 20.3749 62.9027 21.0389C61.5139 21.6722 60.4442 22.6468 59.6933 23.9629C58.5836 24.8396 57.5139 25.7667 56.484 26.7443C55.4933 27.1446 54.5424 27.62 53.6313 28.1707C52.1986 29.4934 50.5583 30.468 48.7103 31.0947C48.639 31.0472 48.5677 30.9996 48.4964 30.9521C49.9386 29.8193 51.3174 28.6069 52.6328 27.3149C53.281 27.0464 53.8515 26.666 54.3445 26.1738C55.099 25.1164 55.836 24.0466 56.5553 22.9645C57.5004 22.2574 58.4039 21.4966 59.2654 20.6823C60.1804 19.3863 61.2027 18.1739 62.3321 17.045C63.4053 16.1848 64.4513 15.3052 65.4701 14.4063Z" fill="#1C1C1B"/>
<path fill-rule="evenodd" clip-rule="evenodd" d="M75.8826 15.5474C76.7614 15.3806 77.4507 15.6659 77.9508 16.4032C78.5561 17.5182 79.0792 18.6593 79.5198 19.8265C80.2642 20.5779 80.4782 21.4812 80.1617 22.5366C79.7828 21.6834 79.3312 20.8753 78.8066 20.1117C78.2483 19.8627 77.9392 19.4348 77.8795 18.828C77.2209 18.0023 76.5316 17.1941 75.8112 16.4032C75.7145 16.1039 75.7384 15.8187 75.8826 15.5474Z" fill="#1E1E1E"/>
<path fill-rule="evenodd" clip-rule="evenodd" d="M32.5211 15.8326C32.7907 15.8037 33.0046 15.8987 33.163 16.1179C33.2581 16.5458 33.2581 16.9737 33.163 17.4016C32.6147 18.4503 32.1868 19.5438 31.8792 20.6823C31.6138 20.8626 31.3285 21.0052 31.0234 21.1102C30.6941 20.8042 30.385 20.4715 30.0963 20.1117C29.1409 21.1247 28.8318 22.3133 29.1691 23.6776C28.6484 24.7192 28.1253 25.7653 27.6001 26.8156C26.4352 27.9806 25.2705 29.1453 24.1056 30.3102C23.9653 30.3945 23.8702 30.3469 23.8203 30.1676C23.8719 29.9929 23.9432 29.8266 24.0342 29.6684C24.6048 29.0027 25.1753 28.3371 25.7459 27.6715C25.841 27.1961 25.936 26.7205 26.0311 26.2451C26.4628 25.7166 26.843 25.1461 27.1722 24.5335C27.2428 24.252 27.2667 23.9668 27.2436 23.6776C26.8603 23.6543 26.4799 23.6781 26.1025 23.749C24.9253 24.8781 23.808 26.043 22.7505 27.2436C22.3978 27.5963 22.0412 27.9529 21.6807 28.3133C20.58 28.6996 19.6765 29.3651 18.9706 30.3102C17.5225 30.9631 16.0961 31.6524 14.6915 32.3785C14.5459 32.3069 14.5221 32.2119 14.6202 32.0932C15.5608 31.2779 16.4879 30.4457 17.4016 29.5971C17.7577 29.443 18.0906 29.2527 18.4001 29.0265C18.9468 28.2895 19.4937 27.5526 20.0404 26.8156C20.3615 26.5479 20.7181 26.334 21.1102 26.1738C21.4375 25.7035 21.8179 25.2756 22.2513 24.8901C22.6615 24.8276 23.0419 24.6849 23.3924 24.4621C24.5055 23.5015 25.6941 22.6457 26.9583 21.8947C27.6001 21.0627 28.242 20.2305 28.8839 19.3986C30.176 18.2727 31.3884 17.0841 32.5211 15.8326Z" fill="#1D1D1D"/>
<path fill-rule="evenodd" clip-rule="evenodd" d="M44.6452 19.9691C44.8631 19.9715 44.9345 20.0667 44.8591 20.2544C44.2199 20.7505 43.7443 21.3686 43.4328 22.1086C42.6439 22.9453 41.8117 23.7298 40.9366 24.4621C40.7748 24.569 40.6321 24.5453 40.5087 24.3908C41.9141 22.9491 43.293 21.4752 44.6452 19.9691Z" fill="#282828"/>
<path fill-rule="evenodd" clip-rule="evenodd" d="M81.3027 19.6838C81.5534 19.7968 81.7436 19.9869 81.8733 20.2544C82.2102 20.3643 82.5431 20.4833 82.8717 20.611C83.2815 21.1212 83.6381 21.668 83.9415 22.2513C84.4717 22.7341 85.0423 23.162 85.6532 23.535C86.0179 24.28 86.4934 24.9457 87.0795 25.5319C87.1523 26.0166 87.1998 26.492 87.2222 26.9583C86.5754 26.3594 85.9811 25.7175 85.4392 25.0327C84.1382 24.4459 83.3062 23.4712 82.9431 22.1086C82.5882 21.7887 82.2079 21.5034 81.802 21.2528C81.4694 20.779 81.303 20.2559 81.3027 19.6838Z" fill="#1F1F1F"/>
<path fill-rule="evenodd" clip-rule="evenodd" d="M49.6375 18.5427C49.8554 18.5452 49.9267 18.6403 49.8514 18.828C49.2762 19.451 48.6581 20.0216 47.9972 20.5396C47.8153 20.8559 47.6727 21.1888 47.5692 21.5381C46.5019 22.2724 45.6936 23.2233 45.1444 24.3908C44.0851 25.4512 42.944 26.402 41.7211 27.2436C42.6865 26.1321 43.7801 24.991 45.0018 23.8203C45.9594 22.7203 46.8628 21.5792 47.7119 20.397C48.4255 19.8499 49.0674 19.2317 49.6375 18.5427Z" fill="#272727"/>
<path fill-rule="evenodd" clip-rule="evenodd" d="M48.4964 17.5443C48.761 17.5118 48.8798 17.6069 48.853 17.8295C47.5246 19.206 46.2409 20.6324 45.0018 22.1086C44.9346 22.3577 44.8395 22.5955 44.7165 22.8218C43.8889 23.5065 43.1044 24.2435 42.363 25.0327C42.0265 25.2264 41.6936 25.369 41.3646 25.4606C42.8978 23.7845 44.4904 22.1442 46.1429 20.5396C46.9579 19.559 47.7424 18.5606 48.4964 17.5443Z" fill="#262626"/>
<path fill-rule="evenodd" clip-rule="evenodd" d="M50.0654 20.6823C50.1505 20.7158 50.198 20.7871 50.208 20.8962C50.0915 21.1088 49.9727 21.3227 49.8514 21.5381C49.2809 22.0135 48.7103 22.4891 48.1398 22.9645C47.7929 23.8833 47.2223 24.6441 46.4282 25.2466C46.0031 26.0727 45.4564 26.8095 44.7878 27.4575C44.5531 27.6573 44.3153 27.6812 44.0746 27.5288C44.4556 27.0528 44.7646 26.5298 45.0018 25.9598C46.25 24.9972 47.2959 23.8561 48.1398 22.5366C48.8571 21.9854 49.499 21.3674 50.0654 20.6823Z" fill="#262626"/>
<path fill-rule="evenodd" clip-rule="evenodd" d="M69.7492 24.1056C69.9131 24.1471 70.0082 24.2659 70.0345 24.4621C69.9165 24.9597 69.7026 25.4112 69.3926 25.8172C68.832 26.338 68.2852 26.8847 67.7523 27.4575C66.3623 28.2945 65.2212 29.3879 64.329 30.7381C63.9925 30.9318 63.6596 31.0745 63.3306 31.1661C64.5109 29.83 65.6758 28.4749 66.8252 27.1009C67.3903 26.5101 68.0085 25.9872 68.6794 25.5319C69.0026 25.0267 69.3592 24.5513 69.7492 24.1056Z" fill="#232323"/>
<path fill-rule="evenodd" clip-rule="evenodd" d="M69.8918 27.5288C70.0182 27.3468 70.1609 27.3468 70.3197 27.5288C70.3021 27.6154 70.2546 27.6629 70.1771 27.6715C70.1283 27.5519 70.0333 27.5043 69.8918 27.5288Z" fill="#7E7E7E"/>
<path fill-rule="evenodd" clip-rule="evenodd" d="M69.8918 27.5288C70.0333 27.5043 70.1283 27.5519 70.1771 27.6715C69.7953 28.4366 69.1772 28.9358 68.3228 29.1691C67.6756 29.9592 66.9387 30.6486 66.112 31.2374C66.6218 30.3418 67.2636 29.5096 68.0376 28.7412C68.3703 28.5986 68.7032 28.456 69.036 28.3133C69.2789 27.9807 69.5642 27.7192 69.8918 27.5288Z" fill="#282828"/>
<path fill-rule="evenodd" clip-rule="evenodd" d="M28.5273 26.8156C28.6047 26.8242 28.6522 26.8717 28.6699 26.9583C28.4836 27.1597 28.3647 27.3975 28.3133 27.6715C26.8156 29.2643 25.318 30.857 23.8203 32.4498C23.6584 32.5566 23.5158 32.5329 23.3924 32.3785C25.1151 30.5139 26.8268 28.6596 28.5273 26.8156Z" fill="#303030"/>
<path fill-rule="evenodd" clip-rule="evenodd" d="M92.8563 28.6699C93.3403 28.6074 93.7682 28.7263 94.14 29.0265C94.4085 29.4513 94.6224 29.903 94.7819 30.3816C95.4452 30.7102 95.8256 31.2332 95.923 31.9506C96.1608 32.331 96.3984 32.7112 96.6362 33.0916C96.7322 33.5225 96.7798 33.9505 96.7788 34.3754C96.115 33.7138 95.5919 32.9531 95.2098 32.0932C94.7074 31.6987 94.232 31.2708 93.7834 30.8095C93.5575 30.214 93.2246 29.6911 92.785 29.2405C92.7024 29.0368 92.7262 28.8465 92.8563 28.6699Z" fill="#222222"/>
<path fill-rule="evenodd" clip-rule="evenodd" d="M28.6699 28.6699C28.82 28.6487 28.9626 28.6723 29.0978 28.7412C27.7672 30.0434 26.4834 31.3984 25.2466 32.8064C24.9641 32.7201 24.9164 32.5774 25.104 32.3785C25.8848 31.9136 26.4315 31.2479 26.7443 30.3816C27.5027 29.9315 28.1446 29.361 28.6699 28.6699Z" fill="#2B2B2B"/>
<path fill-rule="evenodd" clip-rule="evenodd" d="M23.2497 28.9552C23.3959 29.0118 23.4198 29.1068 23.3211 29.2405C23.0358 29.6209 22.7505 30.0011 22.4652 30.3816C21.7653 30.9337 21.0283 31.4329 20.2544 31.8792C19.7025 32.3833 19.2033 32.93 18.7567 33.5196C18.6615 33.3769 18.6615 33.2343 18.7567 33.0916C19.4034 32.4927 19.9978 31.8509 20.5396 31.1661C20.8724 31.0234 21.2053 30.8808 21.5381 30.7381C22.1456 30.1549 22.7161 29.5607 23.2497 28.9552Z" fill="#282828"/>
<path fill-rule="evenodd" clip-rule="evenodd" d="M98.847 31.0947C99.7258 30.928 100.415 31.2133 100.915 31.9506C101.593 33.0206 102.116 34.1617 102.484 35.3738C102.673 35.7043 102.91 35.9896 103.197 36.2296C103.316 36.8531 103.292 37.4713 103.126 38.0839C102.762 37.2218 102.31 36.4135 101.771 35.6591C101.199 35.4203 100.914 34.9924 100.915 34.3754C100.248 33.6088 99.5826 32.8482 98.9183 32.0932C98.681 31.7671 98.6573 31.4344 98.847 31.0947Z" fill="#1F1F1F"/>
<path fill-rule="evenodd" clip-rule="evenodd" d="M114.109 33.9475C114.109 33.995 114.109 34.0426 114.109 34.0901C111.585 33.997 109.112 34.0921 106.692 34.3754C106.563 34.2742 106.516 34.1316 106.549 33.9475C109.069 33.9475 111.589 33.9475 114.109 33.9475Z" fill="#C6C6C6"/>
<path fill-rule="evenodd" clip-rule="evenodd" d="M46.7847 34.0901C46.7847 40.271 46.7847 46.452 46.7847 52.6328C50.5884 52.6328 54.392 52.6328 58.1957 52.6328C58.1957 54.0592 58.1957 55.4856 58.1957 56.9119C52.6328 56.9119 47.07 56.9119 41.5072 56.9119C41.5072 49.3047 41.5072 41.6973 41.5072 34.0901C43.2663 34.0901 45.0256 34.0901 46.7847 34.0901Z" fill="#191919"/>
<path fill-rule="evenodd" clip-rule="evenodd" d="M56.484 34.0901C63.0928 34.0901 69.7017 34.0901 76.3105 34.0901C76.3105 35.469 76.3105 36.8477 76.3105 38.2266C73.9082 38.1795 71.531 38.227 69.1787 38.3692C69.0362 44.5258 68.9887 50.7068 69.036 56.9119C67.2769 56.9119 65.5176 56.9119 63.7585 56.9119C63.7585 50.7311 63.7585 44.5501 63.7585 38.3692C61.3337 38.3692 58.9088 38.3692 56.484 38.3692C56.484 36.9428 56.484 35.5165 56.484 34.0901Z" fill="#1A1A1A"/>
<path fill-rule="evenodd" clip-rule="evenodd" d="M0 34.0901C2.66255 34.0901 5.32509 34.0901 7.98764 34.0901C8.08273 34.0901 8.13027 34.1376 8.13027 34.2327C8.02112 34.603 7.97356 34.9834 7.98764 35.3738C5.84809 35.3738 3.70855 35.3738 1.569 35.3738C1.569 44.7403 1.569 54.1067 1.569 63.4732C7.27446 63.4732 12.9799 63.4732 18.6854 63.4732C18.6854 63.9011 18.6854 64.329 18.6854 64.7569C12.4569 64.7569 6.22846 64.7569 0 64.7569C0 54.5346 0 44.3124 0 34.0901Z" fill="#1E1E1D"/>
<path fill-rule="evenodd" clip-rule="evenodd" d="M46.7847 34.0901C45.0256 34.0901 43.2663 34.0901 41.5072 34.0901C41.5072 41.6973 41.5072 49.3047 41.5072 56.9119C41.3647 49.2813 41.3172 41.6264 41.3646 33.9475C43.1966 33.9005 45.0034 33.9482 46.7847 34.0901Z" fill="#747474"/>
<path fill-rule="evenodd" clip-rule="evenodd" d="M114.109 34.0901C114.109 44.3124 114.109 54.5346 114.109 64.7569C107.928 64.7569 101.747 64.7569 95.5664 64.7569C95.5664 64.2339 95.5664 63.711 95.5664 63.1879C101.177 63.1879 106.787 63.1879 112.397 63.1879C112.397 53.9166 112.397 44.6452 112.397 35.3738C110.543 35.3738 108.689 35.3738 106.835 35.3738C106.863 35.0244 106.816 34.6916 106.692 34.3754C109.112 34.0921 111.585 33.997 114.109 34.0901Z" fill="#1B1B1B"/>
<path fill-rule="evenodd" clip-rule="evenodd" d="M15.9753 33.6622C16.1179 33.6622 16.2605 33.6622 16.4032 33.6622C16.2113 34.3789 15.9022 35.0446 15.476 35.6591C14.4601 36.5316 13.6042 37.5301 12.9086 38.6545C12.0097 39.4106 11.1539 40.2189 10.3411 41.0793C9.95568 42.3505 9.26627 43.4202 8.27291 44.2886C8.05541 44.4325 7.81767 44.5038 7.55973 44.5026C7.83463 43.2914 8.4765 42.293 9.48532 41.5072C9.95311 40.9141 10.2859 40.2484 10.4838 39.5103C11.1517 38.8823 11.7935 38.2404 12.4094 37.5847C12.0225 37.4794 11.6897 37.5746 11.4109 37.87C10.706 38.5424 10.1592 39.3269 9.77059 40.2235C9.19317 40.7535 8.57509 41.2291 7.91632 41.6498C8.30562 40.874 8.82862 40.1608 9.48532 39.5103C9.81813 38.9397 10.151 38.3692 10.4838 37.7986C11.4915 36.9736 12.5613 36.2368 13.6931 35.5878C14.4318 34.9108 15.1925 34.269 15.9753 33.6622Z" fill="#1F1F1F"/>
<path fill-rule="evenodd" clip-rule="evenodd" d="M56.484 34.0901C63.1162 33.9476 69.7726 33.9001 76.4531 33.9475C76.4531 35.4213 76.4531 36.8953 76.4531 38.3692C74.0283 38.3692 71.6035 38.3692 69.1787 38.3692C71.531 38.227 73.9082 38.1795 76.3105 38.2266C76.3105 36.8477 76.3105 35.469 76.3105 34.0901C69.7017 34.0901 63.0928 34.0901 56.484 34.0901Z" fill="#585858"/>
<path fill-rule="evenodd" clip-rule="evenodd" d="M104.267 35.2312C104.57 35.3668 104.807 35.5808 104.98 35.8731C105.281 35.9244 105.566 36.0195 105.836 36.1583C106.27 36.8127 106.722 37.4546 107.191 38.0839C107.754 38.4091 108.277 38.7895 108.76 39.225C109.077 39.9216 109.505 40.5398 110.044 41.0793C110.117 41.564 110.164 42.0394 110.187 42.5056C109.54 41.9067 108.946 41.2649 108.404 40.5801C107.101 39.9915 106.269 39.0169 105.908 37.656C105.434 37.3245 105.006 36.9441 104.624 36.5149C104.352 36.1289 104.233 35.701 104.267 35.2312Z" fill="#1F1F1F"/>
<path fill-rule="evenodd" clip-rule="evenodd" d="M23.535 33.9475C25.2967 33.9001 27.056 33.9476 28.8126 34.0901C32.2644 41.6597 35.6401 49.2669 38.9397 56.9119C37.0855 56.9119 35.2312 56.9119 33.3769 56.9119C32.8843 55.3061 32.2661 53.7371 31.5226 52.2049C27.9577 52.0386 24.3918 52.0148 20.8249 52.1336C20.146 53.6705 19.4803 55.2157 18.828 56.7693C17.0212 56.9594 15.2146 56.9594 13.4078 56.7693C16.7853 49.1589 20.1609 41.5517 23.535 33.9475ZM29.6684 47.9258C27.2862 48.0188 24.9565 47.9237 22.6792 47.6406C23.8191 44.8847 24.9602 42.1271 26.1025 39.3676C27.4026 42.1744 28.5912 45.0272 29.6684 47.9258Z" fill="#191919"/>
<path fill-rule="evenodd" clip-rule="evenodd" d="M84.726 33.9475C91.6502 33.7656 96.0481 36.9986 97.9199 43.6467C98.4622 48.8122 96.6317 52.8773 92.4284 55.8422C87.5669 58.364 82.955 57.9836 78.5927 54.7011C74.3846 50.4449 73.505 45.5715 75.9539 40.0808C77.9752 36.7518 80.8992 34.7073 84.726 33.9475Z" fill="#1A1A1A"/>
<path fill-rule="evenodd" clip-rule="evenodd" d="M89.0051 38.6545C90.2687 39.1677 91.3623 39.9285 92.2858 40.9366C92.4759 41.2694 92.6662 41.6023 92.8563 41.9351C92.8563 41.9826 92.8563 42.0302 92.8563 42.0777C92.7134 43.1002 92.3568 44.051 91.7865 44.9305C90.5467 46.4789 89.1917 47.9053 87.7214 49.2096C87.3481 49.393 87.0153 49.6308 86.7229 49.9227C86.4646 50.1113 86.1793 50.1826 85.8671 50.1367C85.6566 49.7597 85.3713 49.4506 85.0113 49.2096C84.6135 50.1889 84.2569 51.1874 83.9415 52.2049C83.8705 52.4965 83.704 52.6867 83.4423 52.7755C82.8827 52.5908 82.3597 52.3293 81.8733 51.991C81.0788 51.4107 80.4131 50.7212 79.8764 49.9227C79.8289 49.8276 79.7812 49.7326 79.7337 49.6375C79.7095 49.0462 79.8046 48.4757 80.019 47.9258C80.613 46.7385 81.35 45.6451 82.2299 44.6452C83.5193 43.4428 84.8744 42.3254 86.295 41.2932C86.7636 41.4487 87.144 41.7578 87.4361 42.2204C87.608 42.0668 87.7031 41.8766 87.7214 41.6498C88.0915 40.7546 88.4243 39.8275 88.7198 38.8684C88.7678 38.7215 88.8629 38.6502 89.0051 38.6545Z" fill="#F6F8F8"/>
<path fill-rule="evenodd" clip-rule="evenodd" d="M84.4408 38.3692C84.5815 38.6506 84.7242 38.9359 84.8687 39.225C83.5524 39.9721 82.3637 40.8755 81.3027 41.9351C80.4458 42.7688 79.6613 43.6721 78.9492 44.6452C78.8804 44.51 78.8567 44.3673 78.8779 44.2173C79.3138 42.1406 80.4074 40.5003 82.1586 39.2963C82.8753 38.8663 83.636 38.5572 84.4408 38.3692Z" fill="#EEF2F2"/>
<path fill-rule="evenodd" clip-rule="evenodd" d="M89.0051 38.6545C88.8629 38.6502 88.7678 38.7215 88.7198 38.8684C88.4243 39.8275 88.0915 40.7546 87.7214 41.6498C87.5256 41.6722 87.3353 41.6484 87.1508 41.5785C86.8494 40.8919 86.374 40.7492 85.7245 41.1506C85.5104 41.3292 85.2726 41.4718 85.0113 41.5785C84.8655 41.8923 84.6754 42.1776 84.4408 42.4343C84.108 42.4818 83.7751 42.5295 83.4423 42.577C83.615 42.7357 83.615 42.9022 83.4423 43.0762C82.6394 43.7911 81.9262 44.5994 81.3027 45.501C81.1851 45.6274 81.0424 45.6749 80.8748 45.6437C80.954 46.2262 80.8114 46.3213 80.4469 45.9289C80.7432 45.5983 80.8621 45.2179 80.8035 44.7878C80.7502 44.9185 80.6789 45.0374 80.5896 45.1444C80.2666 45.1781 79.9575 45.2494 79.6624 45.3584C79.1873 46.4447 78.8782 47.5858 78.7353 48.7817C78.6517 48.7518 78.5804 48.7042 78.5213 48.639C78.4503 48.1659 78.4265 47.6905 78.45 47.2127C78.6286 46.7158 78.7476 46.1929 78.8066 45.6437C79.107 45.2003 79.3446 44.7249 79.5198 44.2173C80.2026 43.5125 80.797 42.7517 81.3027 41.9351C82.3637 40.8755 83.5524 39.9721 84.8687 39.225C84.7242 38.9359 84.5815 38.6506 84.4408 38.3692C84.4408 38.2266 84.4408 38.0839 84.4408 37.9413C85.9622 37.9413 87.4836 37.9413 89.0051 37.9413C89.0051 38.1791 89.0051 38.4167 89.0051 38.6545Z" fill="#158CCA"/>
<path fill-rule="evenodd" clip-rule="evenodd" d="M94.14 45.2157C94.279 44.3639 94.3028 43.5081 94.2113 42.6483C93.9038 42.0581 93.6899 41.44 93.5695 40.794C93.4268 40.794 93.2842 40.794 93.1416 40.794C93.1862 41.2992 93.1386 41.7746 92.9989 42.2204C92.9989 42.1252 92.9514 42.0777 92.8563 42.0777C92.8563 42.0302 92.8563 41.9826 92.8563 41.9351C93.0173 41.6316 93.0412 41.2988 92.9276 40.9366C92.8271 40.4028 92.6131 39.9274 92.2858 39.5103C92.3333 39.4628 92.3809 39.4151 92.4284 39.3676C93.045 40.0084 93.6394 40.6741 94.2113 41.3646C94.7084 42.6814 94.6848 43.9651 94.14 45.2157Z" fill="#267BA7"/>
<path fill-rule="evenodd" clip-rule="evenodd" d="M93.8548 46.6421C93.8548 46.5946 93.8548 46.547 93.8548 46.4995C93.9499 46.0716 94.0449 45.6437 94.14 45.2157C94.6848 43.9651 94.7084 42.6814 94.2113 41.3646C93.6394 40.6741 93.045 40.0084 92.4284 39.3676C92.3809 39.4151 92.3333 39.4628 92.2858 39.5103C92.6131 39.9274 92.8271 40.4028 92.9276 40.9366C93.0412 41.2988 93.0173 41.6316 92.8563 41.9351C92.6662 41.6023 92.4759 41.2694 92.2858 40.9366C92.3111 40.7662 92.3586 40.5997 92.4284 40.4374C92.2084 40.0045 92.1371 39.5528 92.2144 39.0824C92.3582 39.1511 92.5247 39.1748 92.7137 39.1537C93.1286 39.7583 93.6755 40.2101 94.354 40.5087C94.6858 41.9136 94.7809 43.3399 94.6393 44.7878C94.4095 45.421 94.148 46.039 93.8548 46.6421Z" fill="#0D212D"/>
<path fill-rule="evenodd" clip-rule="evenodd" d="M81.3027 41.9351C80.797 42.7517 80.2026 43.5125 79.5198 44.2173C79.3446 44.7249 79.107 45.2003 78.8066 45.6437C78.7476 46.1929 78.6286 46.7158 78.45 47.2127C78.3092 47.898 78.2616 48.6112 78.3074 49.3522C78.0488 48.531 77.9775 47.6752 78.0934 46.7847C78.4088 46.1004 78.6228 45.3872 78.7353 44.6452C78.7015 44.4611 78.749 44.3184 78.8779 44.2173C78.8567 44.3673 78.8804 44.51 78.9492 44.6452C79.6613 43.6721 80.4458 42.7688 81.3027 41.9351Z" fill="#2F85AA"/>
<path fill-rule="evenodd" clip-rule="evenodd" d="M92.8563 42.0777C92.9514 42.0777 92.9989 42.1252 92.9989 42.2204C92.9838 43.5462 92.5796 44.7348 91.7865 45.7863C91.4883 45.6437 91.2506 45.7388 91.0733 46.0716C90.7687 46.462 90.626 46.8899 90.6454 47.3553C90.7643 47.5692 90.9307 47.7357 91.1447 47.8545C90.6924 48.0024 90.3358 47.8836 90.0749 47.4979C89.8304 47.5801 89.664 47.7465 89.5757 47.9972C88.9747 48.4325 88.3567 48.8366 87.7214 49.2096C89.1917 47.9053 90.5467 46.4789 91.7865 44.9305C92.3568 44.051 92.7134 43.1002 92.8563 42.0777Z" fill="#3090C0"/>
<path fill-rule="evenodd" clip-rule="evenodd" d="M94.14 45.2157C94.0449 45.6437 93.9499 46.0716 93.8548 46.4995C93.4062 47.108 92.9544 47.726 92.4997 48.3537C92.1142 48.7632 91.7101 49.1437 91.2873 49.4948C90.5681 49.3529 90.2354 49.6382 90.2888 50.3507C89.7621 50.2713 89.3817 50.4616 89.1478 50.9212C89.0526 50.8261 88.9576 50.7311 88.8625 50.6359C88.2484 51.0831 87.6542 51.5586 87.0795 52.0623C87.0153 52.428 87.1816 52.642 87.5788 52.7042C87.4149 52.9529 87.2246 52.9767 87.0082 52.7755C86.893 52.8194 86.7978 52.8907 86.7229 52.9894C85.9266 53.0167 85.1421 53.088 84.3694 53.2034C84.4576 52.7093 84.5527 52.1864 84.6547 51.6344C84.8601 51.8549 85.1216 51.9737 85.4392 51.991C85.2588 52.1817 85.1875 52.3956 85.2253 52.6328C85.7238 52.6932 86.223 52.6218 86.7229 52.4189C86.6145 52.2133 86.5195 51.9994 86.4377 51.777C85.9865 51.6595 85.7487 51.3742 85.7245 50.9212C85.9856 50.9999 86.2233 50.9999 86.4377 50.9212C87.0446 51.9125 87.2109 51.865 86.9369 50.7786C86.8894 50.8261 86.8418 50.8737 86.7943 50.9212C86.6355 50.6228 86.6118 50.29 86.7229 49.9227C87.0153 49.6308 87.3481 49.393 87.7214 49.2096C88.3567 48.8366 88.9747 48.4325 89.5757 47.9972C89.664 47.7465 89.8304 47.5801 90.0749 47.4979C90.3358 47.8836 90.6924 48.0024 91.1447 47.8545C90.9307 47.7357 90.7643 47.5692 90.6454 47.3553C90.626 46.8899 90.7687 46.462 91.0733 46.0716C91.2506 45.7388 91.4883 45.6437 91.7865 45.7863C92.5796 44.7348 92.9838 43.5462 92.9989 42.2204C93.1386 41.7746 93.1862 41.2992 93.1416 40.794C93.2842 40.794 93.4268 40.794 93.5695 40.794C93.6899 41.44 93.9038 42.0581 94.2113 42.6483C94.3028 43.5081 94.279 44.3639 94.14 45.2157Z" fill="#148DCE"/>
<path fill-rule="evenodd" clip-rule="evenodd" d="M87.7214 41.6498C87.7031 41.8766 87.608 42.0668 87.4361 42.2204C87.144 41.7578 86.7636 41.4487 86.295 41.2932C84.8744 42.3254 83.5193 43.4428 82.2299 44.6452C81.35 45.6451 80.613 46.7385 80.019 47.9258C79.8046 48.4757 79.7095 49.0462 79.7337 49.6375C79.6375 50.2987 79.6375 50.9644 79.7337 51.6344C78.9672 51.0516 78.4918 50.2909 78.3074 49.3522C78.2616 48.6112 78.3092 47.898 78.45 47.2127C78.4265 47.6905 78.4503 48.1659 78.5213 48.639C78.5804 48.7042 78.6517 48.7518 78.7353 48.7817C78.8782 47.5858 79.1873 46.4447 79.6624 45.3584C79.9575 45.2494 80.2666 45.1781 80.5896 45.1444C80.6789 45.0374 80.7502 44.9185 80.8035 44.7878C80.8621 45.2179 80.7432 45.5983 80.4469 45.9289C80.8114 46.3213 80.954 46.2262 80.8748 45.6437C81.0424 45.6749 81.1851 45.6274 81.3027 45.501C81.9262 44.5994 82.6394 43.7911 83.4423 43.0762C83.615 42.9022 83.615 42.7357 83.4423 42.577C83.7751 42.5295 84.108 42.4818 84.4408 42.4343C84.6754 42.1776 84.8655 41.8923 85.0113 41.5785C85.2726 41.4718 85.5104 41.3292 85.7245 41.1506C86.374 40.7492 86.8494 40.8919 87.1508 41.5785C87.3353 41.6484 87.5256 41.6722 87.7214 41.6498Z" fill="#1E8CC4"/>
<path fill-rule="evenodd" clip-rule="evenodd" d="M93.8548 46.4995C93.8548 46.547 93.8548 46.5946 93.8548 46.6421C93.2906 49.9156 91.4364 52.0552 88.2919 53.0607C88.0922 52.9752 87.9496 52.8325 87.864 52.6328C87.7034 52.4391 87.7034 52.2489 87.864 52.0623C89.1356 51.3587 90.2767 50.5028 91.2873 49.4948C91.7101 49.1437 92.1142 48.7632 92.4997 48.3537C92.9544 47.726 93.4062 47.108 93.8548 46.4995Z" fill="#EFF5F3"/>
<path fill-rule="evenodd" clip-rule="evenodd" d="M78.7353 44.6452C78.6228 45.3872 78.4088 46.1004 78.0934 46.7847C77.9775 47.6752 78.0488 48.531 78.3074 49.3522C78.4918 50.2909 78.9672 51.0516 79.7337 51.6344C79.6375 50.9644 79.6375 50.2987 79.7337 49.6375C79.7812 49.7326 79.8289 49.8276 79.8764 49.9227C79.7874 49.9822 79.7399 50.0774 79.7337 50.208C79.8924 50.4776 80.0113 50.7629 80.0903 51.0638C80.2418 51.3075 80.4083 51.4025 80.5896 51.3491C80.5352 51.6688 80.5114 52.0015 80.5182 52.3476C80.3248 52.4731 80.1109 52.5207 79.8764 52.4902C79.8764 52.3476 79.8764 52.2049 79.8764 52.0623C79.4781 52.0691 79.2167 51.879 79.0919 51.4917C78.9525 51.8112 78.8812 52.144 78.8779 52.4902C78.7353 52.4902 78.5927 52.4902 78.45 52.4902C78.45 52.3001 78.45 52.1098 78.45 51.9197C78.1659 51.8951 77.9283 51.9903 77.7368 52.2049C77.5623 51.8629 77.5859 51.5301 77.8082 51.2065C77.9116 51.443 78.078 51.5143 78.3074 51.4204C78.1705 51.218 78.0516 51.0041 77.9508 50.7786C77.7114 49.3553 77.7114 47.929 77.9508 46.4995C78.0796 45.792 78.341 45.1739 78.7353 44.6452Z" fill="#151F21"/>
<path fill-rule="evenodd" clip-rule="evenodd" d="M86.7229 49.9227C86.6118 50.29 86.6355 50.6228 86.7943 50.9212C86.8418 50.8737 86.8894 50.8261 86.9369 50.7786C87.2109 51.865 87.0446 51.9125 86.4377 50.9212C86.2233 50.9999 85.9856 50.9999 85.7245 50.9212C85.7487 51.3742 85.9865 51.6595 86.4377 51.777C86.5195 51.9994 86.6145 52.2133 86.7229 52.4189C86.223 52.6218 85.7238 52.6932 85.2253 52.6328C85.1875 52.3956 85.2588 52.1817 85.4392 51.991C85.1216 51.9737 84.8601 51.8549 84.6547 51.6344C84.5527 52.1864 84.4576 52.7093 84.3694 53.2034C85.1421 53.088 85.9266 53.0167 86.7229 52.9894C86.7978 52.8907 86.893 52.8194 87.0082 52.7755C87.2246 52.9767 87.4149 52.9529 87.5788 52.7042C87.1816 52.642 87.0153 52.428 87.0795 52.0623C87.6542 51.5586 88.2484 51.0831 88.8625 50.6359C88.9576 50.7311 89.0526 50.8261 89.1478 50.9212C89.3817 50.4616 89.7621 50.2713 90.2888 50.3507C90.2354 49.6382 90.5681 49.3529 91.2873 49.4948C90.2767 50.5028 89.1356 51.3587 87.864 52.0623C87.7034 52.2489 87.7034 52.4391 87.864 52.6328C87.864 52.8706 87.864 53.1082 87.864 53.346C86.4852 53.346 85.1064 53.346 83.7276 53.346C83.7614 53.1619 83.7139 53.0192 83.5849 52.9181C83.4898 52.9181 83.4423 52.8706 83.4423 52.7755C83.704 52.6867 83.8705 52.4965 83.9415 52.2049C84.2569 51.1874 84.6135 50.1889 85.0113 49.2096C85.3713 49.4506 85.6566 49.7597 85.8671 50.1367C86.1793 50.1826 86.4646 50.1113 86.7229 49.9227Z" fill="#208EC8"/>
<path fill-rule="evenodd" clip-rule="evenodd" d="M87.864 52.6328C87.9496 52.8325 88.0922 52.9752 88.2919 53.0607C88.2486 53.1535 88.2011 53.2486 88.1493 53.346C86.6308 53.4885 85.1093 53.536 83.5849 53.4887C83.5849 53.2985 83.5849 53.1082 83.5849 52.9181C83.7139 53.0192 83.7614 53.1619 83.7276 53.346C85.1064 53.346 86.4852 53.346 87.864 53.346C87.864 53.1082 87.864 52.8706 87.864 52.6328Z" fill="#2F7194"/>
<path fill-rule="evenodd" clip-rule="evenodd" d="M27.1009 60.4778C25.3418 60.4778 23.5825 60.4778 21.8234 60.4778C21.8234 60.6205 21.8234 60.7631 21.8234 60.9057C21.6901 60.7534 21.6425 60.5633 21.6807 60.3352C23.5128 60.2883 25.3195 60.3359 27.1009 60.4778Z" fill="#444444"/>
<path fill-rule="evenodd" clip-rule="evenodd" d="M33.5196 67.0391C33.2343 67.0391 32.949 67.0391 32.6637 67.0391C32.2926 66.3218 31.8647 65.6324 31.38 64.9709C30.5731 64.8997 29.7648 64.8759 28.9552 64.8996C28.9552 65.6127 28.9552 66.3259 28.9552 67.0391C28.7174 67.0391 28.4798 67.0391 28.242 67.0391C28.242 64.8044 28.242 62.5699 28.242 60.3352C29.2891 60.3115 30.3351 60.3352 31.38 60.4065C33.1486 60.7969 33.7904 61.8667 33.3056 63.6158C32.9718 64.1159 32.5676 64.5438 32.0932 64.8996C32.607 65.5963 33.0824 66.3095 33.5196 67.0391Z" fill="#212121"/>
<path fill-rule="evenodd" clip-rule="evenodd" d="M45.3584 60.4778C44.2648 60.4778 43.1713 60.4778 42.0777 60.4778C42.0777 62.6174 42.0777 64.7569 42.0777 66.8965C43.1713 66.8965 44.2648 66.8965 45.3584 66.8965C45.3584 66.944 45.3584 66.9916 45.3584 67.0391C44.2173 67.0391 43.0762 67.0391 41.9351 67.0391C41.9351 64.8044 41.9351 62.5699 41.9351 60.3352C43.1024 60.2887 44.2435 60.3363 45.3584 60.4778Z" fill="#3B3B3A"/>
<path fill-rule="evenodd" clip-rule="evenodd" d="M50.4933 67.0391C50.2555 67.0391 50.0179 67.0391 49.7801 67.0391C49.7801 64.8044 49.7801 62.5699 49.7801 60.3352C50.0179 60.3352 50.2555 60.3352 50.4933 60.3352C50.4933 62.5699 50.4933 64.8044 50.4933 67.0391Z" fill="#1E1E1E"/>
<path fill-rule="evenodd" clip-rule="evenodd" d="M58.1957 60.4778C58.0055 60.4778 57.8152 60.4778 57.6251 60.4778C57.6719 62.2149 57.6244 63.9265 57.4825 65.6127C57.4825 63.8536 57.4825 62.0943 57.4825 60.3352C57.7556 60.2947 57.9933 60.3422 58.1957 60.4778Z" fill="#676767"/>
<path fill-rule="evenodd" clip-rule="evenodd" d="M70.3197 60.3352C70.5099 60.3352 70.7002 60.3352 70.8903 60.3352C70.8903 62.3796 70.8903 64.4242 70.8903 66.4686C72.1265 66.4686 73.3626 66.4686 74.5988 66.4686C74.5988 66.6112 74.5988 66.7538 74.5988 66.8965C73.1725 66.8965 71.7461 66.8965 70.3197 66.8965C70.3197 64.7094 70.3197 62.5222 70.3197 60.3352Z" fill="#1A1A19"/>
<path fill-rule="evenodd" clip-rule="evenodd" d="M75.8826 60.3352C76.1203 60.3352 76.358 60.3352 76.5957 60.3352C76.5957 62.3321 76.5957 64.329 76.5957 66.3259C77.7582 66.4676 78.9468 66.5151 80.1617 66.4686C80.1617 66.6112 80.1617 66.7538 80.1617 66.8965C78.7353 66.8965 77.3089 66.8965 75.8826 66.8965C75.8826 64.7094 75.8826 62.5222 75.8826 60.3352Z" fill="#242423"/>
<path fill-rule="evenodd" clip-rule="evenodd" d="M85.1539 67.0391C84.4883 67.0391 83.8227 67.0391 83.157 67.0391C82.2832 66.7139 81.5939 66.1434 81.0888 65.3275C80.2183 63.0887 80.8601 61.4483 83.0144 60.4065C84.4041 60.1036 85.6403 60.3888 86.7229 61.2623C86.5568 61.417 86.3666 61.5358 86.1524 61.6189C84.2054 60.4 82.6601 60.7804 81.5167 62.76C81.2369 65.1893 82.3066 66.4017 84.726 66.3972C85.2822 66.2284 85.8052 66.0382 86.295 65.8267C86.3902 65.9218 86.4852 66.0168 86.5803 66.112C86.1637 66.5328 85.6882 66.8418 85.1539 67.0391Z" fill="#222222"/>
<path fill-rule="evenodd" clip-rule="evenodd" d="M40.794 67.0391C40.5562 67.0391 40.3186 67.0391 40.0808 67.0391C39.8449 66.4716 39.6071 65.901 39.3676 65.3275C38.0875 65.1851 36.8038 65.1375 35.5165 65.1848C35.3189 65.8179 35.0811 66.4359 34.8033 67.0391C34.5655 67.0391 34.3279 67.0391 34.0901 67.0391C35.0215 64.8427 35.9962 62.6555 37.0141 60.4778C37.2994 60.2877 37.5847 60.2877 37.87 60.4778C38.888 62.6555 39.8626 64.8427 40.794 67.0391Z" fill="#222222"/>
<path fill-rule="evenodd" clip-rule="evenodd" d="M28.9552 60.9057C30.0282 60.824 31.0742 60.9428 32.0932 61.2623C33.0424 62.1598 33.0424 63.0631 32.0932 63.9724C31.0742 64.2919 30.0282 64.4108 28.9552 64.329C28.9552 63.1879 28.9552 62.0468 28.9552 60.9057Z" fill="#F1F1F1"/>
<path fill-rule="evenodd" clip-rule="evenodd" d="M24.8187 60.9057C24.8187 62.9502 24.8187 64.9947 24.8187 67.0391C24.581 67.0391 24.3433 67.0391 24.1056 67.0391C24.1056 66.9916 24.1056 66.944 24.1056 66.8965C24.2957 66.8965 24.486 66.8965 24.6761 66.8965C24.6292 64.8743 24.6767 62.8774 24.8187 60.9057Z" fill="#3F3F3F"/>
<path fill-rule="evenodd" clip-rule="evenodd" d="M21.8234 60.9057C22.584 60.9057 23.3449 60.9057 24.1056 60.9057C24.1056 62.9027 24.1056 64.8996 24.1056 66.8965C24.1056 66.944 24.1056 66.9916 24.1056 67.0391C24.0581 67.0391 24.0104 67.0391 23.9629 67.0391C23.9629 65.0422 23.9629 63.0453 23.9629 61.0484C23.2219 61.0942 22.5087 61.0465 21.8234 60.9057Z" fill="#C4C4C4"/>
<path fill-rule="evenodd" clip-rule="evenodd" d="M27.1009 60.4778C27.1009 60.6205 27.1009 60.7631 27.1009 60.9057C26.3402 60.9057 25.5794 60.9057 24.8187 60.9057C24.6767 62.8774 24.6292 64.8743 24.6761 66.8965C24.486 66.8965 24.2957 66.8965 24.1056 66.8965C24.1056 64.8996 24.1056 62.9027 24.1056 60.9057C23.3449 60.9057 22.584 60.9057 21.8234 60.9057C21.8234 60.7631 21.8234 60.6205 21.8234 60.4778C23.5825 60.4778 25.3418 60.4778 27.1009 60.4778Z" fill="#191919"/>
<path fill-rule="evenodd" clip-rule="evenodd" d="M38.9397 64.4717C37.968 64.613 36.9695 64.6606 35.9444 64.6143C36.4051 63.4552 36.9043 62.3141 37.4421 61.191C37.9739 62.2696 38.4732 63.3632 38.9397 64.4717Z" fill="#F1F1F1"/>
<path fill-rule="evenodd" clip-rule="evenodd" d="M53.6313 61.9042C54.9625 63.6158 56.2939 65.3275 57.6251 67.0391C56.2462 67.0391 54.8675 67.0391 53.4887 67.0391C53.4419 65.3021 53.4894 63.5904 53.6313 61.9042Z" fill="#F6F6F6"/>
<path fill-rule="evenodd" clip-rule="evenodd" d="M53.346 60.4778C53.2072 60.662 53.0646 60.662 52.9181 60.4778C52.7756 62.6152 52.728 64.7548 52.7755 66.8965C52.9656 66.8965 53.1559 66.8965 53.346 66.8965C53.346 66.944 53.346 66.9916 53.346 67.0391C53.1082 67.0391 52.8706 67.0391 52.6328 67.0391C52.6328 64.8044 52.6328 62.5699 52.6328 60.3352C52.906 60.2947 53.1436 60.3422 53.346 60.4778Z" fill="#3F3F3E"/>
<path fill-rule="evenodd" clip-rule="evenodd" d="M53.6313 61.9042C53.4894 63.5904 53.4419 65.3021 53.4887 67.0391C53.4412 67.0391 53.3935 67.0391 53.346 67.0391C53.346 66.9916 53.346 66.944 53.346 66.8965C53.2987 65.1823 53.3462 63.4706 53.4887 61.7616C53.5752 61.7793 53.6227 61.8267 53.6313 61.9042Z" fill="#AEAEAC"/>
<path fill-rule="evenodd" clip-rule="evenodd" d="M65.7554 63.7585C65.5652 63.7585 65.375 63.7585 65.1848 63.7585C65.2306 64.4995 65.183 65.2127 65.0422 65.898C65.0422 65.1373 65.0422 64.3765 65.0422 63.6158C65.3153 63.5753 65.553 63.6228 65.7554 63.7585Z" fill="#676767"/>
<path fill-rule="evenodd" clip-rule="evenodd" d="M38.9397 64.4717C39.0172 64.4802 39.0647 64.5277 39.0824 64.6143C38.014 64.8024 36.9681 64.8024 35.9444 64.6143C36.9695 64.6606 37.968 64.613 38.9397 64.4717Z" fill="#525252"/>
<path fill-rule="evenodd" clip-rule="evenodd" d="M53.346 60.4778C54.7249 62.1895 56.1036 63.9011 57.4825 65.6127C57.6244 63.9265 57.6719 62.2149 57.6251 60.4778C57.8152 60.4778 58.0055 60.4778 58.1957 60.4778C58.1957 62.6649 58.1957 64.8521 58.1957 67.0391C58.0055 67.0391 57.8152 67.0391 57.6251 67.0391C56.2939 65.3275 54.9625 63.6158 53.6313 61.9042C53.6227 61.8267 53.5752 61.7793 53.4887 61.7616C53.3462 63.4706 53.2987 65.1823 53.346 66.8965C53.1559 66.8965 52.9656 66.8965 52.7755 66.8965C52.728 64.7548 52.7756 62.6152 52.9181 60.4778C53.0646 60.662 53.2072 60.662 53.346 60.4778Z" fill="#1D1D1D"/>
<path fill-rule="evenodd" clip-rule="evenodd" d="M32.6637 67.0391C31.4275 67.0391 30.1914 67.0391 28.9552 67.0391C28.9552 66.3259 28.9552 65.6127 28.9552 64.8996C29.7648 64.8759 30.5731 64.8997 31.38 64.9709C31.8647 65.6324 32.2926 66.3218 32.6637 67.0391Z" fill="#F5F5F5"/>
<path fill-rule="evenodd" clip-rule="evenodd" d="M40.0808 67.0391C38.3217 67.0391 36.5624 67.0391 34.8033 67.0391C35.0811 66.4359 35.3189 65.8179 35.5165 65.1848C36.8038 65.1375 38.0875 65.1851 39.3676 65.3275C39.6071 65.901 39.8449 66.4716 40.0808 67.0391Z" fill="#F1F1F1"/>
<path fill-rule="evenodd" clip-rule="evenodd" d="M65.0422 65.898C65.183 65.2127 65.2306 64.4995 65.1848 63.7585C65.375 63.7585 65.5652 63.7585 65.7554 63.7585C65.8023 64.6196 65.7548 65.4754 65.6127 66.3259C65.1878 66.5922 64.7599 66.8299 64.329 67.0391C63.6158 67.0391 62.9027 67.0391 62.1895 67.0391C60.1958 66.1419 59.4588 64.6206 59.9786 62.4747C61.222 60.2546 63.0049 59.7079 65.3275 60.8344C65.8825 61.1144 65.8825 61.3759 65.3275 61.6189C64.1342 60.7757 62.8981 60.7043 61.6189 61.405C60.4495 62.4223 60.1879 63.6347 60.8344 65.0422C61.9899 66.5614 63.3925 66.8467 65.0422 65.898Z" fill="#212121"/>
<path fill-rule="evenodd" clip-rule="evenodd" d="M70.8903 60.3352C71.0324 62.3069 71.0799 64.3038 71.0329 66.3259C72.2692 66.3259 73.5052 66.3259 74.7415 66.3259C74.7415 66.5637 74.7415 66.8013 74.7415 67.0391C74.694 67.0391 74.6463 67.0391 74.5988 67.0391C74.5988 66.9916 74.5988 66.944 74.5988 66.8965C74.5988 66.7538 74.5988 66.6112 74.5988 66.4686C73.3626 66.4686 72.1265 66.4686 70.8903 66.4686C70.8903 64.4242 70.8903 62.3796 70.8903 60.3352Z" fill="#80807F"/>
<path fill-rule="evenodd" clip-rule="evenodd" d="M88.5772 67.0391C88.3871 67.0391 88.1968 67.0391 88.0067 67.0391C87.7182 66.7654 87.6706 66.4563 87.864 66.112C88.6087 66.025 88.8465 66.3341 88.5772 67.0391Z" fill="#222222"/>
<path fill-rule="evenodd" clip-rule="evenodd" d="M45.3584 60.4778C46.6131 60.5686 47.4928 61.1866 47.9972 62.3321C48.6898 64.801 47.8102 66.3225 45.3584 66.8965C44.2648 66.8965 43.1713 66.8965 42.0777 66.8965C42.0777 64.7569 42.0777 62.6174 42.0777 60.4778C43.1713 60.4778 44.2648 60.4778 45.3584 60.4778Z" fill="#1F1F1E"/>
<path fill-rule="evenodd" clip-rule="evenodd" d="M45.2157 61.0484C47.4885 61.745 48.0827 63.1714 46.9987 65.3275C46.4819 65.9067 45.8401 66.2396 45.0731 66.3259C44.3124 66.3259 43.5516 66.3259 42.7909 66.3259C42.7909 64.5668 42.7909 62.8075 42.7909 61.0484C43.5992 61.0484 44.4074 61.0484 45.2157 61.0484Z" fill="#F8F8F8"/>
<path fill-rule="evenodd" clip-rule="evenodd" d="M45.2157 61.0484C44.4074 61.0484 43.5992 61.0484 42.7909 61.0484C42.7909 62.8075 42.7909 64.5668 42.7909 66.3259C43.5516 66.3259 44.3124 66.3259 45.0731 66.3259C44.2922 66.467 43.4838 66.5145 42.6483 66.4686C42.6483 64.6143 42.6483 62.76 42.6483 60.9057C43.5312 60.8597 44.387 60.9072 45.2157 61.0484Z" fill="#B7B7B6"/>
<path fill-rule="evenodd" clip-rule="evenodd" d="M70.3197 60.3352C70.3197 62.5222 70.3197 64.7094 70.3197 66.8965C71.7461 66.8965 73.1725 66.8965 74.5988 66.8965C74.5988 66.944 74.5988 66.9916 74.5988 67.0391C73.125 67.0391 71.651 67.0391 70.1771 67.0391C70.13 64.7795 70.1777 62.5448 70.3197 60.3352Z" fill="#5C5C5A"/>
<path fill-rule="evenodd" clip-rule="evenodd" d="M75.8826 60.3352C75.8826 62.5222 75.8826 64.7094 75.8826 66.8965C77.3089 66.8965 78.7353 66.8965 80.1617 66.8965C80.1617 66.7538 80.1617 66.6112 80.1617 66.4686C78.9468 66.5151 77.7582 66.4676 76.5957 66.3259C77.832 66.3259 79.0681 66.3259 80.3043 66.3259C80.3043 66.5637 80.3043 66.8013 80.3043 67.0391C78.7828 67.0391 77.2614 67.0391 75.7399 67.0391C75.6929 64.7795 75.7405 62.5448 75.8826 60.3352Z" fill="#696966"/>
</svg>
