<svg width="160" height="159" viewBox="0 0 160 159" fill="none" xmlns="http://www.w3.org/2000/svg">
<g filter="url(#filter0_d_1_924)">
<path d="M73.5821 132.919C103.482 136.251 130.456 115.019 133.831 85.4952L85.8011 26.0061C55.9009 22.6745 28.9267 43.907 25.5526 73.4303C22.1784 102.954 43.682 129.588 73.5821 132.919Z" fill="#D01215"/>
</g>
<circle cx="79.3734" cy="81.0046" r="30.0642" transform="rotate(17.4369 79.3734 81.0046)" stroke="white" stroke-opacity="0.3" stroke-width="0.5"/>
<path d="M56.2462 58.8024C54.7949 60.3022 52.7506 60.3223 51.3196 58.9375L51.3058 58.9242C49.9367 57.5994 49.8472 55.4479 51.2585 53.9894C52.0907 53.1294 52.8439 52.8191 53.7498 52.7365L53.909 54.1828C53.2465 54.2478 52.7348 54.4187 52.2022 54.9691C51.4566 55.7397 51.5452 57.011 52.3639 57.8033L52.3776 57.8166C53.2583 58.6687 54.4908 58.6891 55.3163 57.836C55.6958 57.4438 55.9257 57.0135 55.9927 56.5588L55.3047 55.8931L54.2728 56.9594L53.3578 56.074L55.3816 53.9825L57.4731 56.0064C57.4134 56.9078 57.0983 57.9218 56.2462 58.8024Z" fill="white"/>
<path d="M62.1324 53.9243C60.6107 54.8854 59.1482 54.6316 58.0899 52.9561L56.0449 49.7184L57.2914 48.9311L59.316 52.1364C59.9039 53.0672 60.6537 53.2504 61.4226 52.7647C62.1916 52.279 62.3585 51.5394 61.786 50.6329L59.7359 47.3871L60.9824 46.5998L63.0018 49.797C64.0856 51.513 63.6541 52.9632 62.1324 53.9243Z" fill="white"/>
<path d="M65.715 51.6029L66.3344 44.2941L67.6257 43.8693L72.4629 49.3833L70.9987 49.8649L69.9471 48.6286L67.2552 49.5141L67.1428 51.1333L65.715 51.6029ZM67.3485 48.1127L69.0401 47.5563L67.5153 45.7701L67.3485 48.1127Z" fill="white"/>
<path d="M74.0991 49.0482L73.5934 42.3658L76.6482 42.1347C77.4979 42.0704 78.1643 42.2504 78.647 42.6651C79.0577 43.0181 79.2869 43.5096 79.3353 44.1492L79.3368 44.1682C79.4184 45.247 78.8874 45.9688 78.0616 46.3481L79.8746 48.6112L78.1563 48.7412L76.5625 46.7112L75.4074 46.7986L75.5692 48.937L74.0991 49.0482ZM75.3092 45.5003L76.7984 45.3876C77.5239 45.3327 77.8967 44.9301 77.8533 44.3573L77.8519 44.3382C77.8035 43.6986 77.3501 43.4161 76.6245 43.471L75.164 43.5815L75.3092 45.5003Z" fill="white"/>
<path d="M81.0739 48.5755L85.0216 42.3934L86.3623 42.618L88.0798 49.7491L86.5597 49.4945L86.2037 47.9109L83.4089 47.4427L82.5563 48.8238L81.0739 48.5755ZM84.1433 46.2456L85.8995 46.5398L85.3805 44.2493L84.1433 46.2456Z" fill="white"/>
<path d="M89.6812 50.2205L92.4 44.0953L93.6426 44.6469L94.8386 49.6922L96.5127 45.9208L97.8427 46.5112L95.1239 52.6364L93.9776 52.1276L92.7397 46.917L91.0113 50.8109L89.6812 50.2205Z" fill="white"/>
<path d="M98.3331 54.6565L101.566 50.404L99.943 49.1698L100.766 48.0876L105.186 51.4483L104.363 52.5305L102.74 51.2963L99.5068 55.5488L98.3331 54.6565Z" fill="white"/>
<path d="M106.895 63.4565L112.801 60.2904L115.189 64.7455L114.033 65.3651L112.337 62.201L111.139 62.8433L112.631 65.6277L111.475 66.2473L109.983 63.4629L108.743 64.1278L110.461 67.3341L109.305 67.9538L106.895 63.4565Z" fill="white"/>
<path d="M110.059 69.7557L116.54 68.051L117.205 70.5786C117.741 72.6154 116.713 74.3905 114.889 74.8703L114.87 74.8751C113.046 75.3549 111.26 74.3202 110.724 72.2833L110.059 69.7557ZM115.918 70.9171L115.628 69.8153L111.721 70.843L112.011 71.9448C112.315 73.1021 113.312 73.6914 114.46 73.3894L114.478 73.3845C115.626 73.0825 116.222 72.0744 115.918 70.9171Z" fill="white"/>
<path d="M112.194 88.1457L111.259 87.0992L111.996 86.4386C111.688 85.8268 111.56 85.1483 111.642 84.3965C111.868 82.341 113.562 81.0342 115.456 81.2422L115.475 81.2443C117.369 81.4523 118.756 83.1167 118.53 85.1722C118.304 87.2277 116.61 88.5345 114.717 88.3265L114.698 88.3244C113.984 88.246 113.37 87.9571 112.85 87.5243L112.194 88.1457ZM112.992 84.5639C112.955 84.897 112.991 85.1803 113.077 85.4498L114.119 84.4758L115.063 85.5234L113.953 86.509C114.215 86.6631 114.514 86.7536 114.847 86.7902L114.866 86.7923C116.008 86.9177 117.051 86.1848 117.181 85.0048C117.311 83.8247 116.468 82.9039 115.326 82.7785L115.307 82.7764C114.165 82.651 113.121 83.3839 112.992 84.5639Z" fill="white"/>
<path d="M109.873 92.4292C110.508 90.745 111.828 90.066 113.683 90.765L117.266 92.1156L116.746 93.4952L113.198 92.1581C112.168 91.7697 111.46 92.0755 111.139 92.9266C110.818 93.7776 111.131 94.4684 112.134 94.8466L115.726 96.2006L115.206 97.5802L111.668 96.2464C109.769 95.5305 109.239 94.1133 109.873 92.4292Z" fill="white"/>
<path d="M108.414 96.4411L112.326 102.646L111.552 103.763L104.368 102.28L105.246 101.013L106.83 101.365L108.444 99.0362L107.558 97.6765L108.414 96.4411ZM109.215 100.211L108.201 101.674L110.494 102.18L109.215 100.211Z" fill="white"/>
<path d="M103.273 103.543L107.785 108.498L106.695 109.491L103.085 105.527L100.615 107.776L99.7126 106.785L103.273 103.543Z" fill="white"/>
<path d="M98.268 107.912L101.929 113.525L100.694 114.33L97.0331 108.717L98.268 107.912Z" fill="white"/>
<path d="M93.5803 110.509L95.7315 115.399L97.598 114.578L98.1455 115.822L93.063 118.058L92.5155 116.814L94.382 115.993L92.2308 111.103L93.5803 110.509Z" fill="white"/>
<path d="M86.8214 112.836L87.3266 115.429L90.6306 118.921L88.9391 119.251L86.8554 116.916L85.7724 119.868L84.1279 120.188L85.885 115.739L85.3743 113.118L86.8214 112.836Z" fill="white"/>
<path d="M78.3312 113.806L74.4519 120.031L73.1088 119.821L71.3127 112.71L72.8356 112.947L73.209 114.527L76.0088 114.964L76.8462 113.574L78.3312 113.806ZM75.2877 116.169L73.5283 115.895L74.0726 118.179L75.2877 116.169Z" fill="white"/>
<path d="M69.7067 112.255L67.0483 118.407L65.8004 117.867L64.5547 112.834L62.9179 116.622L61.5821 116.044L64.2405 109.893L65.3917 110.39L66.6809 115.588L68.3709 111.678L69.7067 112.255Z" fill="white"/>
<path d="M62.2716 108.824L58.1641 114.119L56.099 112.517C54.4348 111.226 54.1711 109.192 55.327 107.702L55.3388 107.686C56.4947 106.196 58.5423 105.931 60.2065 107.222L62.2716 108.824ZM56.9146 111.465L57.8148 112.164L60.291 108.971L59.3909 108.273C58.4453 107.54 57.296 107.678 56.5684 108.616L56.5567 108.631C55.829 109.569 55.9691 110.732 56.9146 111.465Z" fill="white"/>
<path d="M52.8389 99.7042L48.3503 102.601L49.4559 104.314L48.3136 105.051L45.303 100.385L46.4453 99.6484L47.5509 101.362L52.0396 98.4654L52.8389 99.7042Z" fill="white"/>
<path d="M50.1223 95.1695L43.8326 97.4823L42.7753 94.607C42.4813 93.8073 42.4723 93.117 42.7393 92.5394C42.9666 92.0478 43.3767 91.693 43.9787 91.4716L43.9967 91.465C45.0121 91.0917 45.8516 91.4052 46.4421 92.0959L48.1235 89.7334L48.7182 91.3508L47.2011 93.4386L47.6008 94.5259L49.6135 93.7858L50.1223 95.1695ZM46.3788 94.9752L45.8634 93.5735C45.6123 92.8906 45.1231 92.6421 44.584 92.8403L44.566 92.8469C43.964 93.0683 43.8162 93.5816 44.0673 94.2645L44.5728 95.6393L46.3788 94.9752Z" fill="white"/>
<path d="M47.4818 85.2344C47.6875 87.0225 46.8242 88.23 44.8555 88.4565L41.0511 88.8942L40.8826 87.4295L44.6489 86.9962C45.7426 86.8704 46.233 86.2743 46.129 85.3708C46.0251 84.4673 45.4312 83.9959 44.366 84.1185L40.5522 84.5573L40.3837 83.0926L44.1404 82.6604C46.1567 82.4284 47.2761 83.4464 47.4818 85.2344Z" fill="white"/>
<path d="M47.3226 77.8313C47.2134 78.8498 46.7625 79.8221 45.9533 80.5441L45.0086 79.5667C45.5689 79.0105 45.9494 78.4255 46.031 77.664C46.0963 77.0547 45.8961 76.677 45.5058 76.6352L45.4868 76.6331C45.1156 76.5933 44.8912 76.8004 44.4957 77.8845C44.0177 79.2005 43.5355 80.0153 42.2219 79.8745L42.2029 79.8725C40.994 79.7429 40.2974 78.6957 40.4444 77.325C40.5495 76.3446 40.9408 75.5681 41.5569 74.9409L42.5795 75.8208C42.1059 76.3766 41.7982 76.9117 41.7369 77.4828C41.6757 78.054 41.8926 78.3661 42.2257 78.4018L42.2448 78.4038C42.6922 78.4518 42.8465 78.1795 43.2746 77.0603C43.7813 75.7474 44.3388 75.0369 45.5002 75.1614L45.5192 75.1635C46.8423 75.3053 47.4766 76.3939 47.3226 77.8313Z" fill="white"/>
<path d="M48.3286 72.1402L43.2498 70.4838L42.6175 72.4225L41.3251 72.001L43.0467 66.722L44.3392 67.1435L43.7069 69.0822L48.7857 70.7385L48.3286 72.1402Z" fill="white"/>
<g filter="url(#filter1_d_1_924)">
<path d="M133.831 85.495C103.93 82.1633 82.4268 55.5292 85.8009 26.0059L133.831 85.495Z" fill="#FF3258"/>
</g>
<path d="M86.1849 95.1162L86.2 95.1209L86.1849 95.1162ZM86.1849 95.1162C84.8847 95.7795 83.1649 94.9805 81.9049 94.5897C80.3583 94.1101 79.5185 94.1778 78.068 94.9254C76.8329 95.562 75.0415 96.8417 73.5549 96.3807C72.0684 95.9197 71.3397 93.8585 70.6951 92.6388C69.938 91.2066 69.2882 90.6769 67.7416 90.1973C66.4816 89.8065 64.608 89.4911 63.9254 88.2129C63.2373 86.9245 64.0499 85.2193 64.4482 83.9672C64.9515 82.3849 64.8325 81.5487 64.0497 80.0679C62.8853 77.8653 62.3032 76.7639 62.6344 75.7225C62.9657 74.681 64.0811 74.1062 66.3118 72.9565C67.6505 72.2665 68.4405 71.4165 68.8967 69.9824C69.2925 68.7383 69.612 66.8883 70.9065 66.2143C72.2114 65.5349 73.9383 66.3372 75.2063 66.7305C76.6587 67.1809 77.8167 67.027 79.1553 66.3371C81.3861 65.1873 82.5015 64.6125 83.5563 64.9396C84.6111 65.2667 85.1932 66.368 86.3576 68.5707C87.0561 69.8922 87.9169 70.6724 89.3696 71.1229C90.6296 71.5137 92.5034 71.8292 93.186 73.1075C93.8739 74.3958 93.0613 76.101 92.663 77.353C92.1597 78.9354 92.2788 79.7716 93.0615 81.2523C94.226 83.455 94.8081 84.5563 94.4768 85.5978C94.1456 86.6391 93.0302 87.2141 90.7994 88.3637C89.2997 89.1367 88.7178 89.7555 88.2145 91.3378C87.8162 92.5899 87.4955 94.4477 86.1849 95.1162Z" fill="white"/>
<path d="M73.3327 80.5824C73.3327 80.5824 74.9173 82.1995 75.3948 83.9976C75.3948 83.9976 80.1359 78.9912 84.5821 78.2111" stroke="#FEB100" stroke-width="1.5" stroke-linecap="round" stroke-linejoin="round"/>
<defs>
<filter id="filter0_d_1_924" x="12.204" y="14.6621" width="138.627" height="137.602" filterUnits="userSpaceOnUse" color-interpolation-filters="sRGB">
<feFlood flood-opacity="0" result="BackgroundImageFix"/>
<feColorMatrix in="SourceAlpha" type="matrix" values="0 0 0 0 0 0 0 0 0 0 0 0 0 0 0 0 0 0 127 0" result="hardAlpha"/>
<feOffset dx="2" dy="4"/>
<feGaussianBlur stdDeviation="7.5"/>
<feComposite in2="hardAlpha" operator="out"/>
<feColorMatrix type="matrix" values="0 0 0 0 0.55024 0 0 0 0 0.0372809 0 0 0 0 0.132143 0 0 0 0.67 0"/>
<feBlend mode="normal" in2="BackgroundImageFix" result="effect1_dropShadow_1_924"/>
<feBlend mode="normal" in="SourceGraphic" in2="effect1_dropShadow_1_924" result="shape"/>
</filter>
<filter id="filter1_d_1_924" x="79.4524" y="24.0059" width="60.3781" height="71.4893" filterUnits="userSpaceOnUse" color-interpolation-filters="sRGB">
<feFlood flood-opacity="0" result="BackgroundImageFix"/>
<feColorMatrix in="SourceAlpha" type="matrix" values="0 0 0 0 0 0 0 0 0 0 0 0 0 0 0 0 0 0 127 0" result="hardAlpha"/>
<feOffset dy="4"/>
<feGaussianBlur stdDeviation="3"/>
<feComposite in2="hardAlpha" operator="out"/>
<feColorMatrix type="matrix" values="0 0 0 0 0.494939 0 0 0 0 0.355869 0 0 0 0 0.0361871 0 0 0 0.68 0"/>
<feBlend mode="normal" in2="BackgroundImageFix" result="effect1_dropShadow_1_924"/>
<feBlend mode="normal" in="SourceGraphic" in2="effect1_dropShadow_1_924" result="shape"/>
</filter>
</defs>
</svg>
